<svg xmlns="http://www.w3.org/2000/svg" xmlns:xlink="http://www.w3.org/1999/xlink" width="325" height="224" viewBox="0 0 325 224"><defs><filter id="a" x="0" y="124" width="325" height="100" filterUnits="userSpaceOnUse"><feOffset dy="3" input="SourceAlpha"/><feGaussianBlur stdDeviation="3" result="b"/><feFlood flood-opacity="0.161"/><feComposite operator="in" in2="b"/><feComposite in="SourceGraphic"/></filter></defs><g transform="translate(-8524 -356)"><g transform="translate(8586 356)"><rect width="199.965" height="81.804" fill="#231f20"/><path d="M16.069-28.217a8.284,8.284,0,0,0-6.425,2.578V-35.991H3.456v29.43h5.91V-9.021a8.291,8.291,0,0,0,6.7,2.776c5.989,0,10.63-4.284,10.63-10.987S22.058-28.217,16.069-28.217ZM15-11.321c-3.094,0-5.434-2.221-5.434-5.91s2.34-5.91,5.434-5.91,5.434,2.221,5.434,5.91S18.091-11.321,15-11.321ZM33.917-30.875a3.558,3.558,0,0,0,3.847-3.57c0-1.9-1.547-3.332-3.847-3.332a3.537,3.537,0,0,0-3.847,3.451A3.537,3.537,0,0,0,33.917-30.875ZM30.823-6.562h6.187V-27.9H30.823ZM55.731-28.217a9.342,9.342,0,0,0-7.06,2.816v-2.5h-5.91V-6.562h6.187v-10.55c0-3.927,2.142-5.751,5.116-5.751,2.737,0,4.323,1.587,4.323,5.037V-6.562h6.187V-18.778C64.576-25.282,60.768-28.217,55.731-28.217Zm21.219-.119c0-2.1.992-3.094,2.816-3.094a4.332,4.332,0,0,1,2.5.754l1.626-4.482a8.771,8.771,0,0,0-4.72-1.15c-5.315,0-8.25,3.133-8.25,7.933v.952H67.63v4.76h3.292v16.1h6.187v-16.1h5.315v-4.76H76.951ZM95.394-6.244c6.782,0,11.7-4.561,11.7-10.987s-4.918-10.987-11.7-10.987-11.74,4.561-11.74,10.987S88.611-6.244,95.394-6.244Zm0-5.077c-3.094,0-5.473-2.221-5.473-5.91s2.38-5.91,5.473-5.91,5.434,2.221,5.434,5.91S98.487-11.321,95.394-11.321Zm15.825,4.76h6.187v-29.43h-6.187Zm15.032-24.313a3.558,3.558,0,0,0,3.847-3.57c0-1.9-1.547-3.332-3.847-3.332a3.537,3.537,0,0,0-3.847,3.451A3.537,3.537,0,0,0,126.251-30.875ZM123.158-6.562h6.187V-27.9h-6.187Zm22.092.317c6.782,0,11.7-4.561,11.7-10.987s-4.918-10.987-11.7-10.987-11.74,4.561-11.74,10.987S138.467-6.244,145.25-6.244Zm0-5.077c-3.094,0-5.473-2.221-5.473-5.91s2.38-5.91,5.473-5.91,5.434,2.221,5.434,5.91S148.343-11.321,145.25-11.321Z" transform="translate(20.884 52.835)" fill="#fff"/><path d="M3.792-7.571a2.137,2.137,0,0,1,1.76.774,3.4,3.4,0,0,1,.627,2.19,3.421,3.421,0,0,1-.632,2.2,2.128,2.128,0,0,1-1.754.784A2.488,2.488,0,0,1,2.767-1.83a1.928,1.928,0,0,1-.779-.637H1.925l-.184.74H1.117V-9.889h.871v1.983q0,.666-.042,1.2h.042A2.067,2.067,0,0,1,3.792-7.571Zm-.126.729a1.52,1.52,0,0,0-1.285.511,2.885,2.885,0,0,0-.393,1.723,2.877,2.877,0,0,0,.4,1.734,1.536,1.536,0,0,0,1.3.522,1.343,1.343,0,0,0,1.2-.585,3.006,3.006,0,0,0,.393-1.681,2.889,2.889,0,0,0-.393-1.673A1.394,1.394,0,0,0,3.666-6.842Zm7.569,5.114-.173-.818H11.02a2.419,2.419,0,0,1-.858.732,2.614,2.614,0,0,1-1.067.191,1.92,1.92,0,0,1-1.34-.441A1.607,1.607,0,0,1,7.27-3.317q0-1.741,2.785-1.825l.976-.031V-5.53a1.457,1.457,0,0,0-.291-1,1.2,1.2,0,0,0-.931-.323,3.793,3.793,0,0,0-1.626.441l-.267-.666a4.091,4.091,0,0,1,.931-.362,4.032,4.032,0,0,1,1.015-.131,2.19,2.19,0,0,1,1.524.456,1.9,1.9,0,0,1,.5,1.463v3.923ZM9.268-2.341a1.767,1.767,0,0,0,1.277-.446,1.649,1.649,0,0,0,.464-1.248v-.519l-.871.037a3.167,3.167,0,0,0-1.5.323.973.973,0,0,0-.459.889.9.9,0,0,0,.286.719A1.187,1.187,0,0,0,9.268-2.341Zm6.7.719a2.453,2.453,0,0,1-1.933-.768,3.16,3.16,0,0,1-.684-2.174,3.258,3.258,0,0,1,.695-2.229,2.5,2.5,0,0,1,1.98-.787,3.929,3.929,0,0,1,.829.089,2.73,2.73,0,0,1,.65.21l-.267.74a4.094,4.094,0,0,0-.629-.191,2.81,2.81,0,0,0-.6-.076q-1.752,0-1.752,2.234a2.661,2.661,0,0,0,.427,1.626,1.487,1.487,0,0,0,1.267.566,3.873,3.873,0,0,0,1.474-.309v.771A3.141,3.141,0,0,1,15.971-1.623ZM19.648-4.67a10.239,10.239,0,0,1,.687-.839l1.857-1.967h1.033L20.9-5.027l2.491,3.3H22.334L20.3-4.445l-.656.566v2.15h-.86V-9.889h.86v4.327q0,.288-.042.892Zm12.531.063a3.171,3.171,0,0,1-.708,2.2,2.494,2.494,0,0,1-1.956.789,2.591,2.591,0,0,1-1.369-.362,2.389,2.389,0,0,1-.923-1.039A3.619,3.619,0,0,1,26.9-4.607a3.166,3.166,0,0,1,.7-2.19,2.486,2.486,0,0,1,1.951-.784,2.432,2.432,0,0,1,1.917.8A3.158,3.158,0,0,1,32.179-4.607Zm-4.38,0a2.729,2.729,0,0,0,.441,1.678,1.529,1.529,0,0,0,1.3.577,1.54,1.54,0,0,0,1.3-.574,2.715,2.715,0,0,0,.443-1.681,2.671,2.671,0,0,0-.443-1.665,1.557,1.557,0,0,0-1.309-.569,1.532,1.532,0,0,0-1.29.561A2.7,2.7,0,0,0,27.8-4.607ZM39.9-6.8H38.441v5.072h-.871V-6.8H36.542v-.393l1.028-.315v-.32q0-2.119,1.852-2.119a3.81,3.81,0,0,1,1.07.184l-.226.7a2.88,2.88,0,0,0-.86-.163.838.838,0,0,0-.729.328,1.83,1.83,0,0,0-.236,1.052v.372H39.9ZM36.3-6.8H34.833v5.072h-.871V-6.8H32.934v-.393l1.028-.315v-.32q0-2.119,1.852-2.119a3.81,3.81,0,0,1,1.07.184l-.226.7a2.88,2.88,0,0,0-.86-.163.838.838,0,0,0-.729.328,1.83,1.83,0,0,0-.236,1.052v.372H36.3Zm5.565,5.072H40.99V-7.476h.871Zm-.944-7.306a.578.578,0,0,1,.147-.438.513.513,0,0,1,.367-.139.513.513,0,0,1,.362.142.568.568,0,0,1,.152.435.577.577,0,0,1-.152.438.508.508,0,0,1-.362.144.5.5,0,0,1-.367-.144A.589.589,0,0,1,40.917-9.034Zm5.1,7.411a2.453,2.453,0,0,1-1.933-.768A3.16,3.16,0,0,1,43.4-4.565a3.258,3.258,0,0,1,.695-2.229,2.5,2.5,0,0,1,1.98-.787,3.929,3.929,0,0,1,.829.089,2.73,2.73,0,0,1,.65.21l-.267.74a4.094,4.094,0,0,0-.629-.191,2.81,2.81,0,0,0-.6-.076Q44.3-6.81,44.3-4.576a2.661,2.661,0,0,0,.427,1.626,1.487,1.487,0,0,0,1.267.566,3.873,3.873,0,0,0,1.474-.309v.771A3.141,3.141,0,0,1,46.015-1.623Zm5.245,0A2.641,2.641,0,0,1,49.249-2.4a3.005,3.005,0,0,1-.737-2.156A3.333,3.333,0,0,1,49.2-6.763a2.274,2.274,0,0,1,1.838-.818,2.168,2.168,0,0,1,1.71.711A2.724,2.724,0,0,1,53.374-5v.551h-3.96a2.279,2.279,0,0,0,.511,1.537,1.769,1.769,0,0,0,1.366.525,4.63,4.63,0,0,0,1.836-.388V-2a4.608,4.608,0,0,1-.873.286A4.908,4.908,0,0,1,51.26-1.623Zm-.236-5.229a1.422,1.422,0,0,0-1.1.451,2.079,2.079,0,0,0-.485,1.248H52.44a1.914,1.914,0,0,0-.367-1.261A1.292,1.292,0,0,0,51.024-6.852Zm10.16,5.124-.173-.818h-.042a2.419,2.419,0,0,1-.858.732,2.614,2.614,0,0,1-1.067.191,1.92,1.92,0,0,1-1.34-.441,1.607,1.607,0,0,1-.485-1.254q0-1.741,2.785-1.825l.976-.031V-5.53a1.457,1.457,0,0,0-.291-1,1.2,1.2,0,0,0-.931-.323,3.793,3.793,0,0,0-1.626.441l-.267-.666a4.092,4.092,0,0,1,.931-.362,4.032,4.032,0,0,1,1.015-.131,2.19,2.19,0,0,1,1.524.456,1.9,1.9,0,0,1,.5,1.463v3.923Zm-1.967-.614a1.767,1.767,0,0,0,1.277-.446,1.649,1.649,0,0,0,.464-1.248v-.519l-.871.037a3.167,3.167,0,0,0-1.5.323.973.973,0,0,0-.459.889.9.9,0,0,0,.286.719A1.187,1.187,0,0,0,59.217-2.341ZM67.331-3.3a1.44,1.44,0,0,1-.6,1.238,2.811,2.811,0,0,1-1.678.435,3.65,3.65,0,0,1-1.783-.362v-.808a4.313,4.313,0,0,0,.889.33,3.712,3.712,0,0,0,.915.121,2.076,2.076,0,0,0,1.049-.218.72.72,0,0,0,.367-.664A.72.72,0,0,0,66.2-3.8a4.579,4.579,0,0,0-1.136-.564,6.157,6.157,0,0,1-1.141-.522,1.558,1.558,0,0,1-.5-.506,1.32,1.32,0,0,1-.165-.677,1.29,1.29,0,0,1,.572-1.109A2.664,2.664,0,0,1,65.4-7.581a4.589,4.589,0,0,1,1.815.378L66.9-6.5a4.166,4.166,0,0,0-1.568-.357,1.8,1.8,0,0,0-.934.194.6.6,0,0,0-.315.535.652.652,0,0,0,.118.393,1.165,1.165,0,0,0,.38.309A8.5,8.5,0,0,0,65.59-5a3.762,3.762,0,0,1,1.382.75A1.323,1.323,0,0,1,67.331-3.3Zm5.124,0a1.44,1.44,0,0,1-.6,1.238,2.811,2.811,0,0,1-1.678.435A3.65,3.65,0,0,1,68.4-1.985v-.808a4.312,4.312,0,0,0,.889.33,3.712,3.712,0,0,0,.915.121,2.076,2.076,0,0,0,1.049-.218.72.72,0,0,0,.367-.664.72.72,0,0,0-.291-.574,4.579,4.579,0,0,0-1.136-.564,6.158,6.158,0,0,1-1.141-.522,1.558,1.558,0,0,1-.5-.506,1.32,1.32,0,0,1-.165-.677,1.29,1.29,0,0,1,.572-1.109,2.664,2.664,0,0,1,1.568-.406,4.589,4.589,0,0,1,1.815.378l-.309.708a4.166,4.166,0,0,0-1.568-.357,1.8,1.8,0,0,0-.934.194.6.6,0,0,0-.315.535.652.652,0,0,0,.118.393,1.165,1.165,0,0,0,.38.309A8.5,8.5,0,0,0,70.714-5a3.762,3.762,0,0,1,1.382.75A1.323,1.323,0,0,1,72.456-3.3ZM76.3-1.623A2.641,2.641,0,0,1,74.289-2.4a3.005,3.005,0,0,1-.737-2.156,3.333,3.333,0,0,1,.684-2.208,2.274,2.274,0,0,1,1.838-.818,2.168,2.168,0,0,1,1.71.711A2.724,2.724,0,0,1,78.414-5v.551h-3.96a2.279,2.279,0,0,0,.511,1.537,1.769,1.769,0,0,0,1.366.525,4.63,4.63,0,0,0,1.836-.388V-2a4.608,4.608,0,0,1-.873.286A4.908,4.908,0,0,1,76.3-1.623Zm-.236-5.229a1.422,1.422,0,0,0-1.1.451,2.079,2.079,0,0,0-.485,1.248H77.48a1.914,1.914,0,0,0-.367-1.261A1.292,1.292,0,0,0,76.064-6.852Zm5.691,4.511a2.844,2.844,0,0,0,.446-.034,2.886,2.886,0,0,0,.341-.071v.666a1.592,1.592,0,0,1-.417.113,3.132,3.132,0,0,1-.5.045q-1.668,0-1.668-1.757V-6.8h-.823v-.42l.823-.362.367-1.227h.5v1.332H82.5V-6.8H80.832v3.383a1.164,1.164,0,0,0,.247.8A.858.858,0,0,0,81.755-2.341Zm12.053.614v-3.74A1.552,1.552,0,0,0,93.515-6.5a1.136,1.136,0,0,0-.913-.344,1.473,1.473,0,0,0-1.2.467,2.219,2.219,0,0,0-.388,1.437v3.21h-.871v-3.74A1.552,1.552,0,0,0,89.848-6.5a1.143,1.143,0,0,0-.918-.344,1.422,1.422,0,0,0-1.2.49,2.654,2.654,0,0,0-.38,1.608v3.016h-.871V-7.476h.708l.142.787h.042a1.711,1.711,0,0,1,.695-.656,2.123,2.123,0,0,1,1-.236,1.708,1.708,0,0,1,1.762.976h.042a1.833,1.833,0,0,1,.745-.713,2.311,2.311,0,0,1,1.112-.262,1.947,1.947,0,0,1,1.461.5,2.241,2.241,0,0,1,.485,1.6v3.75Zm6.2,0-.173-.818h-.042a2.419,2.419,0,0,1-.858.732,2.614,2.614,0,0,1-1.067.191,1.92,1.92,0,0,1-1.34-.441,1.607,1.607,0,0,1-.485-1.254q0-1.741,2.785-1.825l.976-.031V-5.53a1.457,1.457,0,0,0-.291-1,1.2,1.2,0,0,0-.931-.323,3.793,3.793,0,0,0-1.626.441l-.268-.666a4.092,4.092,0,0,1,.931-.362,4.032,4.032,0,0,1,1.015-.131,2.19,2.19,0,0,1,1.524.456,1.9,1.9,0,0,1,.5,1.463v3.923Zm-1.967-.614a1.767,1.767,0,0,0,1.277-.446,1.649,1.649,0,0,0,.464-1.248v-.519l-.871.037a3.167,3.167,0,0,0-1.5.323.973.973,0,0,0-.459.889.9.9,0,0,0,.286.719A1.187,1.187,0,0,0,98.041-2.341Zm8.34.614V-5.446a1.5,1.5,0,0,0-.32-1.049,1.3,1.3,0,0,0-1-.346,1.652,1.652,0,0,0-1.322.488,2.463,2.463,0,0,0-.42,1.61v3.016h-.871V-7.476h.708l.142.787h.042a1.778,1.778,0,0,1,.75-.658,2.437,2.437,0,0,1,1.075-.233,2.184,2.184,0,0,1,1.563.5,2.132,2.132,0,0,1,.525,1.6v3.75Zm6.194,0-.173-.818h-.042a2.419,2.419,0,0,1-.858.732,2.614,2.614,0,0,1-1.067.191,1.92,1.92,0,0,1-1.34-.441,1.607,1.607,0,0,1-.485-1.254q0-1.741,2.785-1.825l.976-.031V-5.53a1.457,1.457,0,0,0-.291-1,1.2,1.2,0,0,0-.931-.323,3.793,3.793,0,0,0-1.626.441l-.268-.666a4.091,4.091,0,0,1,.931-.362,4.032,4.032,0,0,1,1.015-.131,2.19,2.19,0,0,1,1.524.456,1.9,1.9,0,0,1,.5,1.463v3.923Zm-1.967-.614a1.767,1.767,0,0,0,1.277-.446,1.649,1.649,0,0,0,.464-1.248v-.519l-.871.037a3.167,3.167,0,0,0-1.5.323.973.973,0,0,0-.459.889.9.9,0,0,0,.286.719A1.187,1.187,0,0,0,110.608-2.341Zm9.111-5.135v.551l-1.065.126a1.83,1.83,0,0,1,.262.48,1.831,1.831,0,0,1,.115.669,1.7,1.7,0,0,1-.577,1.348,2.327,2.327,0,0,1-1.584.5,2.638,2.638,0,0,1-.483-.042.857.857,0,0,0-.556.74.376.376,0,0,0,.194.349,1.418,1.418,0,0,0,.666.113h1.018a2.279,2.279,0,0,1,1.435.393,1.367,1.367,0,0,1,.5,1.143A1.632,1.632,0,0,1,118.88.352a4.1,4.1,0,0,1-2.234.5,3.053,3.053,0,0,1-1.739-.42A1.355,1.355,0,0,1,114.3-.752a1.331,1.331,0,0,1,.336-.907,1.709,1.709,0,0,1,.944-.519.911.911,0,0,1-.37-.309.819.819,0,0,1-.149-.488.926.926,0,0,1,.168-.551,1.765,1.765,0,0,1,.53-.456,1.553,1.553,0,0,1-.726-.624,1.834,1.834,0,0,1-.281-1.007,1.86,1.86,0,0,1,.566-1.456,2.313,2.313,0,0,1,1.6-.511,2.918,2.918,0,0,1,.813.1ZM115.135-.763a.78.78,0,0,0,.393.708,2.171,2.171,0,0,0,1.128.241,3.147,3.147,0,0,0,1.623-.328,1,1,0,0,0,.527-.889.7.7,0,0,0-.288-.648,2.24,2.24,0,0,0-1.086-.181h-1.044a1.375,1.375,0,0,0-.923.283A1.012,1.012,0,0,0,115.135-.763Zm.472-4.873a1.17,1.17,0,0,0,.341.913,1.361,1.361,0,0,0,.949.309,1.111,1.111,0,0,0,1.275-1.238,1.143,1.143,0,0,0-1.29-1.3,1.277,1.277,0,0,0-.944.33A1.331,1.331,0,0,0,115.607-5.635Zm7.721,4.012a2.641,2.641,0,0,1-2.011-.776,3.005,3.005,0,0,1-.737-2.156,3.333,3.333,0,0,1,.684-2.208,2.274,2.274,0,0,1,1.838-.818,2.168,2.168,0,0,1,1.71.711A2.724,2.724,0,0,1,125.441-5v.551h-3.96a2.279,2.279,0,0,0,.511,1.537,1.769,1.769,0,0,0,1.366.525,4.63,4.63,0,0,0,1.836-.388V-2a4.607,4.607,0,0,1-.873.286A4.908,4.908,0,0,1,123.328-1.623Zm-.236-5.229a1.422,1.422,0,0,0-1.1.451,2.079,2.079,0,0,0-.485,1.248h3.005a1.914,1.914,0,0,0-.367-1.261A1.292,1.292,0,0,0,123.092-6.852Zm11.162,5.124v-3.74a1.552,1.552,0,0,0-.294-1.031,1.136,1.136,0,0,0-.913-.344,1.474,1.474,0,0,0-1.2.467,2.219,2.219,0,0,0-.388,1.437v3.21h-.871v-3.74a1.552,1.552,0,0,0-.294-1.031,1.143,1.143,0,0,0-.918-.344,1.422,1.422,0,0,0-1.2.49,2.654,2.654,0,0,0-.38,1.608v3.016h-.871V-7.476h.708l.142.787h.042a1.711,1.711,0,0,1,.695-.656,2.123,2.123,0,0,1,1-.236,1.708,1.708,0,0,1,1.762.976h.042a1.833,1.833,0,0,1,.745-.713,2.311,2.311,0,0,1,1.112-.262,1.947,1.947,0,0,1,1.461.5,2.241,2.241,0,0,1,.485,1.6v3.75Zm5.093.1a2.641,2.641,0,0,1-2.011-.776,3.005,3.005,0,0,1-.737-2.156,3.333,3.333,0,0,1,.684-2.208,2.274,2.274,0,0,1,1.838-.818,2.168,2.168,0,0,1,1.71.711A2.724,2.724,0,0,1,141.46-5v.551H137.5a2.279,2.279,0,0,0,.511,1.537,1.769,1.769,0,0,0,1.366.525,4.63,4.63,0,0,0,1.836-.388V-2a4.608,4.608,0,0,1-.873.286A4.908,4.908,0,0,1,139.346-1.623Zm-.236-5.229a1.422,1.422,0,0,0-1.1.451,2.079,2.079,0,0,0-.485,1.248h3.005a1.914,1.914,0,0,0-.367-1.261A1.292,1.292,0,0,0,139.11-6.852Zm7.768,5.124V-5.446a1.5,1.5,0,0,0-.32-1.049,1.3,1.3,0,0,0-1-.346,1.652,1.652,0,0,0-1.322.488,2.463,2.463,0,0,0-.42,1.61v3.016h-.871V-7.476h.708l.142.787h.042a1.778,1.778,0,0,1,.75-.658,2.437,2.437,0,0,1,1.075-.233,2.184,2.184,0,0,1,1.563.5,2.132,2.132,0,0,1,.525,1.6v3.75Zm4.516-.614a2.844,2.844,0,0,0,.446-.034,2.887,2.887,0,0,0,.341-.071v.666a1.592,1.592,0,0,1-.417.113,3.131,3.131,0,0,1-.5.045q-1.668,0-1.668-1.757V-6.8h-.823v-.42l.823-.362.367-1.227h.5v1.332h1.668V-6.8h-1.668v3.383a1.164,1.164,0,0,0,.247.8A.858.858,0,0,0,151.394-2.341Z" transform="translate(23.769 65.353)" fill="#fff"/></g><g transform="translate(8533 486)"><g transform="matrix(1, 0, 0, 1, -9, -130)" filter="url(#a)"><rect width="307" height="82" transform="translate(9 130)" fill="#e40521"/></g><path d="M15.74-29.476A5.99,5.99,0,0,0,10.6-26.982a11.6,11.6,0,0,0-1.82,6.95q0,9.273,6.959,9.273a22,22,0,0,0,7.073-1.46v4.93A19.643,19.643,0,0,1,15.19-5.867q-6.049,0-9.254-3.669T2.731-20.07A17.2,17.2,0,0,1,4.3-27.646a11.376,11.376,0,0,1,4.523-4.987,13.379,13.379,0,0,1,6.912-1.735,18.655,18.655,0,0,1,8.116,1.953l-1.9,4.779a31.39,31.39,0,0,0-3.129-1.289A9.334,9.334,0,0,0,15.74-29.476Zm21.3,5.746a3.668,3.668,0,0,0-2.882,1.166,5.4,5.4,0,0,0-1.195,3.309h8.116a4.821,4.821,0,0,0-1.119-3.309A3.788,3.788,0,0,0,37.035-23.73ZM37.85-5.867q-5.12,0-8-2.825t-2.882-8q0-5.329,2.664-8.239A9.487,9.487,0,0,1,37-27.845a9.338,9.338,0,0,1,7,2.56,9.685,9.685,0,0,1,2.5,7.073v2.807H32.825a5.567,5.567,0,0,0,1.46,3.849,5.138,5.138,0,0,0,3.831,1.384,15.9,15.9,0,0,0,3.622-.4A18.123,18.123,0,0,0,45.3-11.84v4.475A13.581,13.581,0,0,1,42.06-6.237,20.445,20.445,0,0,1,37.85-5.867Zm19.134-.379H51.2V-35.753h5.784ZM74.771-23.1H69.765V-6.246H63.981V-23.1H60.8v-2.788l3.186-1.555V-29q0-3.622,1.783-5.291t5.708-1.669a14.855,14.855,0,0,1,5.329.891l-1.479,4.248a10.781,10.781,0,0,0-3.224-.55,2.087,2.087,0,0,0-1.783.73,3.02,3.02,0,0,0-.55,1.868v1.327h5.006Zm7.927,6.22a8.9,8.9,0,0,0,1.033,4.76A3.7,3.7,0,0,0,87.1-10.513a3.637,3.637,0,0,0,3.328-1.6,9.026,9.026,0,0,0,1.015-4.769,8.757,8.757,0,0,0-1.024-4.722,3.7,3.7,0,0,0-3.356-1.574,3.691,3.691,0,0,0-3.337,1.564A8.749,8.749,0,0,0,82.7-16.885Zm14.658,0q0,5.177-2.731,8.1a9.9,9.9,0,0,1-7.6,2.92A10.637,10.637,0,0,1,81.636-7.2a8.9,8.9,0,0,1-3.584-3.84A12.9,12.9,0,0,1,76.8-16.885q0-5.2,2.712-8.078t7.623-2.882a10.7,10.7,0,0,1,5.385,1.327A8.86,8.86,0,0,1,96.1-22.706,12.784,12.784,0,0,1,97.356-16.885ZM110.744-5.867q-9.9,0-9.9-10.866,0-5.4,2.693-8.258t7.718-2.854a14.714,14.714,0,0,1,6.6,1.441l-1.707,4.475q-1.365-.55-2.541-.9a8.187,8.187,0,0,0-2.351-.351q-4.513,0-4.513,6.409,0,6.22,4.513,6.22A10.29,10.29,0,0,0,114.347-11a11.16,11.16,0,0,0,2.844-1.394v4.949a9.322,9.322,0,0,1-2.835,1.233A15.943,15.943,0,0,1,110.744-5.867Zm26.378-.379-.777-2.712h-.3a6.1,6.1,0,0,1-2.636,2.285,9,9,0,0,1-3.887.806,7.4,7.4,0,0,1-5.632-2,8.05,8.05,0,0,1-1.9-5.755V-27.447h5.784v12.383a5.948,5.948,0,0,0,.815,3.442,2.967,2.967,0,0,0,2.6,1.147,3.906,3.906,0,0,0,3.508-1.621q1.081-1.621,1.081-5.376v-9.975h5.784v21.2Zm25.3-6.3a5.837,5.837,0,0,1-2.266,4.968q-2.266,1.707-6.779,1.707a21.293,21.293,0,0,1-3.944-.313,14.919,14.919,0,0,1-3.053-.92v-4.779a20.162,20.162,0,0,0,3.631,1.271,14.7,14.7,0,0,0,3.556.512q3.148,0,3.148-1.82a1.519,1.519,0,0,0-.417-1.109,6.048,6.048,0,0,0-1.441-.967q-1.024-.54-2.731-1.261a17.153,17.153,0,0,1-3.593-1.9,5.338,5.338,0,0,1-1.669-2,6.6,6.6,0,0,1-.521-2.778,5.036,5.036,0,0,1,2.19-4.371,10.669,10.669,0,0,1,6.21-1.545,17.628,17.628,0,0,1,7.452,1.669L160.446-22q-1.593-.683-2.977-1.119a9.349,9.349,0,0,0-2.825-.436q-2.56,0-2.56,1.384a1.627,1.627,0,0,0,.825,1.346,22.433,22.433,0,0,0,3.612,1.688,16.782,16.782,0,0,1,3.641,1.877,5.552,5.552,0,0,1,1.707,2.01A6.177,6.177,0,0,1,162.418-12.542Zm32.029,6.3-2.01-6.6H182.33l-2.01,6.6h-6.334l9.785-27.838h7.187l9.823,27.838Zm-3.413-11.53q-2.788-8.97-3.138-10.145t-.5-1.858q-.626,2.427-3.584,12Zm24.974,11.53L209.333-28h-.171q.36,6.637.36,8.856V-6.246H204.27V-33.97h8l6.561,21.2h.114l6.959-21.2h8V-6.246h-5.48V-19.369q0-.929.028-2.143t.256-6.447h-.171L221.393-6.246Zm41.245-7.7a7.167,7.167,0,0,1-2.7,5.916q-2.7,2.162-7.519,2.162a17.658,17.658,0,0,1-7.851-1.669V-13a32.353,32.353,0,0,0,4.75,1.764,14.057,14.057,0,0,0,3.556.512,5.055,5.055,0,0,0,2.968-.74,2.53,2.53,0,0,0,1.034-2.2,2.428,2.428,0,0,0-.455-1.451,5.092,5.092,0,0,0-1.337-1.223,34.38,34.38,0,0,0-3.593-1.877,17.032,17.032,0,0,1-3.812-2.295,8.614,8.614,0,0,1-2.029-2.56,7.306,7.306,0,0,1-.759-3.413A7.165,7.165,0,0,1,242-32.264a10.362,10.362,0,0,1,6.893-2.1,16.277,16.277,0,0,1,4.124.512,28.347,28.347,0,0,1,4.105,1.441l-1.9,4.57a27.745,27.745,0,0,0-3.669-1.271,11.811,11.811,0,0,0-2.854-.36,3.779,3.779,0,0,0-2.56.777,2.565,2.565,0,0,0-.891,2.029,2.511,2.511,0,0,0,.36,1.356,3.961,3.961,0,0,0,1.147,1.119,35.465,35.465,0,0,0,3.726,1.944,14.827,14.827,0,0,1,5.329,3.726A7.273,7.273,0,0,1,257.252-13.945Z" transform="translate(23.709 54.049)" fill="#fff"/><path d="M5.874-1.635,4.92-4.074H1.846L.9-1.635H0l3.032-7.7h.75L6.8-1.635ZM4.642-4.877,3.75-7.253Q3.577-7.7,3.394-8.359a9.938,9.938,0,0,1-.33,1.107l-.9,2.376ZM11.429-3.2a1.44,1.44,0,0,1-.6,1.238,2.811,2.811,0,0,1-1.678.435,3.65,3.65,0,0,1-1.783-.362V-2.7a4.313,4.313,0,0,0,.889.33,3.713,3.713,0,0,0,.915.121,2.076,2.076,0,0,0,1.049-.218.72.72,0,0,0,.367-.664A.72.72,0,0,0,10.3-3.7a4.579,4.579,0,0,0-1.136-.564A6.158,6.158,0,0,1,8.022-4.79a1.558,1.558,0,0,1-.5-.506,1.32,1.32,0,0,1-.165-.677,1.29,1.29,0,0,1,.572-1.109,2.664,2.664,0,0,1,1.568-.406,4.589,4.589,0,0,1,1.815.378L11-6.4A4.166,4.166,0,0,0,9.431-6.76a1.8,1.8,0,0,0-.934.194.6.6,0,0,0-.315.535.652.652,0,0,0,.118.393,1.165,1.165,0,0,0,.38.309A8.5,8.5,0,0,0,9.688-4.9a3.762,3.762,0,0,1,1.382.75A1.323,1.323,0,0,1,11.429-3.2Zm5.124,0a1.44,1.44,0,0,1-.6,1.238,2.811,2.811,0,0,1-1.678.435,3.65,3.65,0,0,1-1.783-.362V-2.7a4.313,4.313,0,0,0,.889.33,3.713,3.713,0,0,0,.915.121,2.076,2.076,0,0,0,1.049-.218.72.72,0,0,0,.367-.664.72.72,0,0,0-.291-.574,4.579,4.579,0,0,0-1.136-.564,6.158,6.158,0,0,1-1.141-.522,1.558,1.558,0,0,1-.5-.506,1.32,1.32,0,0,1-.165-.677,1.29,1.29,0,0,1,.572-1.109,2.664,2.664,0,0,1,1.568-.406,4.589,4.589,0,0,1,1.815.378l-.309.708a4.166,4.166,0,0,0-1.568-.357,1.8,1.8,0,0,0-.934.194.6.6,0,0,0-.315.535.652.652,0,0,0,.118.393,1.165,1.165,0,0,0,.38.309,8.5,8.5,0,0,0,1.007.425,3.762,3.762,0,0,1,1.382.75A1.323,1.323,0,0,1,16.553-3.2ZM20.4-1.53a2.641,2.641,0,0,1-2.011-.776,3.005,3.005,0,0,1-.737-2.156,3.333,3.333,0,0,1,.684-2.208,2.274,2.274,0,0,1,1.838-.818,2.168,2.168,0,0,1,1.71.711A2.724,2.724,0,0,1,22.512-4.9v.551h-3.96a2.279,2.279,0,0,0,.511,1.537,1.769,1.769,0,0,0,1.366.525,4.63,4.63,0,0,0,1.836-.388V-1.9a4.608,4.608,0,0,1-.873.286A4.908,4.908,0,0,1,20.4-1.53ZM20.162-6.76a1.422,1.422,0,0,0-1.1.451,2.079,2.079,0,0,0-.485,1.248h3.005a1.914,1.914,0,0,0-.367-1.261A1.292,1.292,0,0,0,20.162-6.76Zm5.691,4.511a2.844,2.844,0,0,0,.446-.034,2.886,2.886,0,0,0,.341-.071v.666a1.592,1.592,0,0,1-.417.113,3.131,3.131,0,0,1-.5.045q-1.668,0-1.668-1.757v-3.42h-.823v-.42l.823-.362.367-1.227h.5v1.332H26.6v.677H24.93v3.383a1.164,1.164,0,0,0,.247.8A.858.858,0,0,0,25.853-2.249Zm8.251.614-2.6-6.8H31.46q.073.808.073,1.92v4.878H30.71V-9.3h1.343l2.428,6.326h.042L36.973-9.3H38.3v7.668h-.892V-6.576q0-.85.073-1.846h-.042L34.822-1.635Zm9.709,0-.173-.818H43.6a2.419,2.419,0,0,1-.858.732,2.614,2.614,0,0,1-1.067.191,1.92,1.92,0,0,1-1.34-.441,1.607,1.607,0,0,1-.485-1.254q0-1.741,2.785-1.825l.976-.031v-.357a1.457,1.457,0,0,0-.291-1,1.2,1.2,0,0,0-.931-.323,3.793,3.793,0,0,0-1.626.441l-.267-.666a4.091,4.091,0,0,1,.931-.362,4.032,4.032,0,0,1,1.015-.131,2.19,2.19,0,0,1,1.524.456,1.9,1.9,0,0,1,.5,1.463v3.923Zm-1.967-.614a1.767,1.767,0,0,0,1.277-.446,1.649,1.649,0,0,0,.464-1.248v-.519l-.871.037a3.167,3.167,0,0,0-1.5.323.973.973,0,0,0-.459.889.9.9,0,0,0,.286.719A1.187,1.187,0,0,0,41.845-2.249Zm8.34.614V-5.354a1.5,1.5,0,0,0-.32-1.049,1.3,1.3,0,0,0-1-.346,1.652,1.652,0,0,0-1.322.488,2.463,2.463,0,0,0-.42,1.61v3.016h-.871V-7.384h.708L47.1-6.6h.042a1.778,1.778,0,0,1,.75-.658,2.437,2.437,0,0,1,1.075-.233,2.184,2.184,0,0,1,1.563.5,2.132,2.132,0,0,1,.525,1.6v3.75Zm6.194,0-.173-.818h-.042a2.419,2.419,0,0,1-.858.732,2.614,2.614,0,0,1-1.067.191,1.92,1.92,0,0,1-1.34-.441,1.607,1.607,0,0,1-.485-1.254q0-1.741,2.785-1.825l.976-.031v-.357a1.457,1.457,0,0,0-.291-1,1.2,1.2,0,0,0-.931-.323,3.793,3.793,0,0,0-1.626.441l-.268-.666a4.091,4.091,0,0,1,.931-.362,4.032,4.032,0,0,1,1.015-.131,2.19,2.19,0,0,1,1.524.456,1.9,1.9,0,0,1,.5,1.463v3.923Zm-1.967-.614a1.767,1.767,0,0,0,1.277-.446,1.649,1.649,0,0,0,.464-1.248v-.519l-.871.037a3.167,3.167,0,0,0-1.5.323.973.973,0,0,0-.459.889.9.9,0,0,0,.286.719A1.187,1.187,0,0,0,54.413-2.249Zm9.111-5.135v.551l-1.065.126a1.83,1.83,0,0,1,.262.48,1.831,1.831,0,0,1,.115.669,1.7,1.7,0,0,1-.577,1.348,2.327,2.327,0,0,1-1.584.5,2.638,2.638,0,0,1-.483-.042.857.857,0,0,0-.556.74.376.376,0,0,0,.194.349,1.418,1.418,0,0,0,.666.113h1.018a2.279,2.279,0,0,1,1.435.393,1.367,1.367,0,0,1,.5,1.143A1.632,1.632,0,0,1,62.684.445a4.1,4.1,0,0,1-2.234.5,3.053,3.053,0,0,1-1.739-.42A1.355,1.355,0,0,1,58.1-.66a1.331,1.331,0,0,1,.336-.907,1.709,1.709,0,0,1,.944-.519.911.911,0,0,1-.37-.309.819.819,0,0,1-.149-.488.926.926,0,0,1,.168-.551,1.765,1.765,0,0,1,.53-.456,1.553,1.553,0,0,1-.726-.624,1.834,1.834,0,0,1-.281-1.007,1.86,1.86,0,0,1,.566-1.456,2.313,2.313,0,0,1,1.6-.511,2.919,2.919,0,0,1,.813.1ZM58.939-.67a.78.78,0,0,0,.393.708A2.171,2.171,0,0,0,60.46.279a3.147,3.147,0,0,0,1.623-.328,1,1,0,0,0,.527-.889.7.7,0,0,0-.288-.648,2.241,2.241,0,0,0-1.086-.181H60.193a1.375,1.375,0,0,0-.923.283A1.012,1.012,0,0,0,58.939-.67Zm.472-4.873a1.17,1.17,0,0,0,.341.913,1.361,1.361,0,0,0,.949.309,1.111,1.111,0,0,0,1.275-1.238,1.143,1.143,0,0,0-1.29-1.3,1.277,1.277,0,0,0-.944.33A1.331,1.331,0,0,0,59.411-5.543ZM67.132-1.53a2.641,2.641,0,0,1-2.011-.776,3.005,3.005,0,0,1-.737-2.156,3.333,3.333,0,0,1,.684-2.208,2.274,2.274,0,0,1,1.838-.818,2.168,2.168,0,0,1,1.71.711A2.724,2.724,0,0,1,69.246-4.9v.551h-3.96A2.279,2.279,0,0,0,65.8-2.815a1.769,1.769,0,0,0,1.366.525A4.63,4.63,0,0,0,69-2.679V-1.9a4.608,4.608,0,0,1-.873.286A4.908,4.908,0,0,1,67.132-1.53ZM66.9-6.76a1.422,1.422,0,0,0-1.1.451,2.079,2.079,0,0,0-.485,1.248h3.005a1.914,1.914,0,0,0-.367-1.261A1.292,1.292,0,0,0,66.9-6.76ZM78.057-1.635v-3.74a1.552,1.552,0,0,0-.294-1.031,1.136,1.136,0,0,0-.913-.344,1.473,1.473,0,0,0-1.2.467,2.219,2.219,0,0,0-.388,1.437v3.21h-.871v-3.74A1.552,1.552,0,0,0,74.1-6.406a1.143,1.143,0,0,0-.918-.344,1.422,1.422,0,0,0-1.2.49,2.654,2.654,0,0,0-.38,1.608v3.016H70.73V-7.384h.708l.142.787h.042a1.711,1.711,0,0,1,.695-.656,2.123,2.123,0,0,1,1-.236,1.708,1.708,0,0,1,1.762.976h.042a1.833,1.833,0,0,1,.745-.713,2.311,2.311,0,0,1,1.112-.262,1.947,1.947,0,0,1,1.461.5,2.241,2.241,0,0,1,.485,1.6v3.75Zm5.093.1a2.641,2.641,0,0,1-2.011-.776A3.005,3.005,0,0,1,80.4-4.462a3.333,3.333,0,0,1,.684-2.208,2.274,2.274,0,0,1,1.838-.818,2.168,2.168,0,0,1,1.71.711A2.724,2.724,0,0,1,85.264-4.9v.551H81.3a2.279,2.279,0,0,0,.511,1.537,1.769,1.769,0,0,0,1.366.525,4.63,4.63,0,0,0,1.836-.388V-1.9a4.608,4.608,0,0,1-.873.286A4.908,4.908,0,0,1,83.15-1.53ZM82.914-6.76a1.422,1.422,0,0,0-1.1.451,2.079,2.079,0,0,0-.485,1.248H84.33a1.914,1.914,0,0,0-.367-1.261A1.292,1.292,0,0,0,82.914-6.76Zm7.768,5.124V-5.354a1.5,1.5,0,0,0-.32-1.049,1.3,1.3,0,0,0-1-.346,1.652,1.652,0,0,0-1.322.488,2.463,2.463,0,0,0-.42,1.61v3.016h-.871V-7.384h.708L87.6-6.6h.042a1.778,1.778,0,0,1,.75-.658,2.437,2.437,0,0,1,1.075-.233,2.183,2.183,0,0,1,1.563.5,2.132,2.132,0,0,1,.525,1.6v3.75ZM95.2-2.249a2.844,2.844,0,0,0,.446-.034,2.886,2.886,0,0,0,.341-.071v.666a1.592,1.592,0,0,1-.417.113,3.131,3.131,0,0,1-.5.045Q93.4-1.53,93.4-3.287v-3.42h-.823v-.42l.823-.362.367-1.227h.5v1.332h1.668v.677H94.275v3.383a1.164,1.164,0,0,0,.247.8A.858.858,0,0,0,95.2-2.249Zm9.184-1.427a1.881,1.881,0,0,1-.734,1.579,3.184,3.184,0,0,1-1.993.566,4.992,4.992,0,0,1-2.1-.351v-.86a5.524,5.524,0,0,0,1.028.315,5.409,5.409,0,0,0,1.1.115,2.222,2.222,0,0,0,1.343-.338,1.11,1.11,0,0,0,.451-.941,1.209,1.209,0,0,0-.16-.653,1.486,1.486,0,0,0-.535-.469,7.484,7.484,0,0,0-1.141-.488,3.641,3.641,0,0,1-1.529-.907,2,2,0,0,1-.459-1.369,1.7,1.7,0,0,1,.666-1.411,2.768,2.768,0,0,1,1.762-.525,5.194,5.194,0,0,1,2.1.42l-.278.776a4.753,4.753,0,0,0-1.846-.4,1.787,1.787,0,0,0-1.107.3,1,1,0,0,0-.4.844,1.294,1.294,0,0,0,.147.653,1.383,1.383,0,0,0,.5.467,6.158,6.158,0,0,0,1.067.469,4.226,4.226,0,0,1,1.66.923A1.816,1.816,0,0,1,104.382-3.675Zm.525-3.708h.934L107.1-4.106a12.469,12.469,0,0,1,.514,1.621h.042q.068-.267.286-.915t1.424-3.984h.934l-2.47,6.546a3.265,3.265,0,0,1-.858,1.377,1.824,1.824,0,0,1-1.2.406,3.5,3.5,0,0,1-.787-.089v-.7a3.035,3.035,0,0,0,.645.063,1.33,1.33,0,0,0,1.28-1.007l.32-.818ZM114.941-3.2a1.44,1.44,0,0,1-.6,1.238,2.811,2.811,0,0,1-1.678.435,3.65,3.65,0,0,1-1.783-.362V-2.7a4.313,4.313,0,0,0,.889.33,3.713,3.713,0,0,0,.915.121,2.076,2.076,0,0,0,1.049-.218.72.72,0,0,0,.367-.664.72.72,0,0,0-.291-.574,4.579,4.579,0,0,0-1.136-.564,6.157,6.157,0,0,1-1.141-.522,1.558,1.558,0,0,1-.5-.506,1.32,1.32,0,0,1-.165-.677,1.29,1.29,0,0,1,.572-1.109,2.664,2.664,0,0,1,1.568-.406,4.589,4.589,0,0,1,1.815.378l-.309.708a4.166,4.166,0,0,0-1.568-.357,1.8,1.8,0,0,0-.934.194.6.6,0,0,0-.315.535.652.652,0,0,0,.118.393,1.164,1.164,0,0,0,.38.309A8.5,8.5,0,0,0,113.2-4.9a3.762,3.762,0,0,1,1.382.75A1.323,1.323,0,0,1,114.941-3.2Zm3.273.955a2.844,2.844,0,0,0,.446-.034A2.885,2.885,0,0,0,119-2.354v.666a1.591,1.591,0,0,1-.417.113,3.131,3.131,0,0,1-.5.045q-1.668,0-1.668-1.757v-3.42H115.6v-.42l.823-.362.367-1.227h.5v1.332h1.668v.677h-1.668v3.383a1.164,1.164,0,0,0,.247.8A.858.858,0,0,0,118.214-2.249Zm4.364.719a2.641,2.641,0,0,1-2.011-.776,3.005,3.005,0,0,1-.737-2.156,3.333,3.333,0,0,1,.684-2.208,2.274,2.274,0,0,1,1.838-.818,2.168,2.168,0,0,1,1.71.711,2.724,2.724,0,0,1,.629,1.875v.551h-3.96a2.279,2.279,0,0,0,.511,1.537,1.769,1.769,0,0,0,1.366.525,4.63,4.63,0,0,0,1.836-.388V-1.9a4.608,4.608,0,0,1-.873.286A4.908,4.908,0,0,1,122.578-1.53Zm-.236-5.229a1.422,1.422,0,0,0-1.1.451,2.079,2.079,0,0,0-.485,1.248h3.005a1.914,1.914,0,0,0-.367-1.261A1.292,1.292,0,0,0,122.342-6.76ZM133.5-1.635v-3.74a1.552,1.552,0,0,0-.294-1.031,1.136,1.136,0,0,0-.913-.344,1.473,1.473,0,0,0-1.2.467,2.219,2.219,0,0,0-.388,1.437v3.21h-.871v-3.74a1.552,1.552,0,0,0-.294-1.031,1.143,1.143,0,0,0-.918-.344,1.422,1.422,0,0,0-1.2.49,2.654,2.654,0,0,0-.38,1.608v3.016h-.871V-7.384h.708l.142.787h.042a1.711,1.711,0,0,1,.695-.656,2.123,2.123,0,0,1,1-.236,1.708,1.708,0,0,1,1.762.976h.042a1.833,1.833,0,0,1,.745-.713,2.311,2.311,0,0,1,1.112-.262,1.947,1.947,0,0,1,1.461.5,2.241,2.241,0,0,1,.485,1.6v3.75Z" transform="translate(86.156 66.79)" fill="#fff"/></g><g transform="translate(313 48)"><path d="M27.393-12.246,16.5-1.354,5.607-12.246,7.541-14.18l7.605,7.541V-26.1h2.707V-6.639l7.605-7.605ZM16.5-1.354H2.771V1.354H30.229V-1.354Z" transform="translate(8357 426)" fill="#231f20"/></g></g></svg>