<svg xmlns="http://www.w3.org/2000/svg" width="40" height="40" viewBox="0 0 40 40"><g transform="translate(-6776 238)"><rect width="40" height="40" transform="translate(6776 -238)" fill="none"/><path d="M31.641-24.3,29.3-26.641l-9.3,9.3-9.3-9.3L8.359-24.3l9.3,9.3-9.3,9.3L10.7-3.359l9.3-9.3,9.3,9.3L31.641-5.7l-9.3-9.3Z" transform="translate(6776 -203)" fill="#231f20"/><path d="M10.7-27.348l9.3,9.3,9.3-9.3L32.348-24.3l-9.3,9.3,9.3,9.3L29.3-2.652l-9.3-9.3-9.3,9.3L7.652-5.7l9.3-9.3-9.3-9.3ZM20-16.637l-9.3-9.3L9.066-24.3l9.3,9.3-9.3,9.3L10.7-4.066l9.3-9.3,9.3,9.3L30.934-5.7l-9.3-9.3,9.3-9.3L29.3-25.934Z" transform="translate(6776 -203)" fill="rgba(0,0,0,0)"/><path d="M31.641-24.3,29.3-26.641l-9.3,9.3-9.3-9.3L8.359-24.3l9.3,9.3-9.3,9.3L10.7-3.359l9.3-9.3,9.3,9.3L31.641-5.7l-9.3-9.3Z" transform="translate(6776 -203)" fill="#fff" opacity="0.12"/></g></svg>