<svg xmlns="http://www.w3.org/2000/svg" width="24" height="24" viewBox="0 0 24 24"><g transform="translate(-1690 -3067)"><path d="M12-18.937A9.8,9.8,0,0,0,6.984-17.6a9.881,9.881,0,0,0-3.633,3.633A9.8,9.8,0,0,0,2.016-8.953a9.914,9.914,0,0,0,1.1,4.617A10.024,10.024,0,0,0,6.141-.8,9.339,9.339,0,0,0,10.453.938V-6.047H7.922V-8.953h2.531v-2.2a3.917,3.917,0,0,1,1.008-2.859A3.658,3.658,0,0,1,14.2-15.047a13.664,13.664,0,0,1,2.25.188v2.484H15.188a1.617,1.617,0,0,0-1.266.469,1.562,1.562,0,0,0-.375,1.078v1.875h2.813l-.469,2.906H13.547V.938A9.788,9.788,0,0,0,17.906-.844a9.805,9.805,0,0,0,3-3.539,9.99,9.99,0,0,0,1.078-4.57,9.8,9.8,0,0,0-1.336-5.016A9.881,9.881,0,0,0,17.016-17.6,9.8,9.8,0,0,0,12-18.937Z" transform="translate(1690 3088)" fill="#ffffff"/><path d="M1,1V23H23V1H1M0,0H24V24H0Z" transform="translate(1690 3067)" fill="none"/></g></svg>