<svg xmlns="http://www.w3.org/2000/svg" xmlns:xlink="http://www.w3.org/1999/xlink" width="333" height="300.01" viewBox="0 0 333 300.01"><defs><linearGradient id="a" x1="0.5" x2="0.5" y2="1" gradientUnits="objectBoundingBox"><stop offset="0" stop-color="#e40521"/><stop offset="1" stop-color="#b7041b"/></linearGradient></defs><path d="M11.436,0H57.178A11.436,11.436,0,0,1,68.614,11.436v89.259A11.436,11.436,0,0,1,57.178,112.13H11.436A11.436,11.436,0,0,1,0,100.694V11.436A11.436,11.436,0,0,1,11.436,0Z" transform="translate(264.386 85.517)" fill="#7a0101" opacity="0.3"/><path d="M241,181.316c5.781,0,10.465-6.287,10.465-14.043V79.29c0-7.756-4.684-14.043-10.465-14.043H125.032c-5.781,0-10.467,6.287-10.467,14.043v87.983c0,7.756,4.685,14.043,10.467,14.043h30.906c5.779,0,10.464,6.286,10.464,14.043S161.717,209.4,155.938,209.4H125.032c-5.781,0-10.467,6.287-10.467,14.043v87.984c0,7.754,4.685,14.042,10.467,14.042H241c5.781,0,10.465-6.287,10.465-14.042V223.444c0-7.756-4.684-14.043-10.465-14.043H210.036c-5.78,0-10.465-6.287-10.465-14.042s4.685-14.043,10.465-14.043Z" transform="translate(-6.318 -25.46)" fill="#7a0101"/><path d="M241,177.2H210.036c-5.78,0-10.465-6.286-10.465-14.042s4.685-14.043,10.465-14.043H241c5.749,0,10.412-6.225,10.461-13.926-24.568,3.987-49.757.232-74.432-5.009-17.454-3.708-34.942-8.876-52.709-6.607a66.626,66.626,0,0,0-9.756,2.023v9.475c0,7.756,4.685,14.043,10.467,14.043h30.906c5.779,0,10.464,6.287,10.464,14.043S161.717,177.2,155.938,177.2H125.032c-5.781,0-10.467,6.287-10.467,14.043v87.983c0,7.756,4.685,14.043,10.467,14.043H241c5.78,0,10.464-6.287,10.464-14.043V191.242c0-7.756-4.684-14.043-10.464-14.043" transform="translate(-6.138 6.741)" fill="url(#a)"/><path d="M4.987-5.254a1.831,1.831,0,0,1-.644,1.508,2.838,2.838,0,0,1-1.834.524H1.856V-.873H.829v-6.28H2.637A2.736,2.736,0,0,1,4.4-6.671,1.727,1.727,0,0,1,4.987-5.254ZM1.856-4.085H2.4a1.955,1.955,0,0,0,1.16-.275,1,1,0,0,0,.369-.859A.975.975,0,0,0,3.6-6.027a1.633,1.633,0,0,0-1.031-.266H1.856Zm9.961.064a3.435,3.435,0,0,1-.767,2.384,2.773,2.773,0,0,1-2.171.85,2.792,2.792,0,0,1-2.184-.844,3.456,3.456,0,0,1-.762-2.4A3.4,3.4,0,0,1,6.7-6.418a2.825,2.825,0,0,1,2.188-.833,2.768,2.768,0,0,1,2.165.846A3.431,3.431,0,0,1,11.816-4.021Zm-4.793,0a2.816,2.816,0,0,0,.468,1.759,1.653,1.653,0,0,0,1.387.6,1.65,1.65,0,0,0,1.381-.593,2.821,2.821,0,0,0,.466-1.765,2.827,2.827,0,0,0-.462-1.752,1.632,1.632,0,0,0-1.377-.6,1.667,1.667,0,0,0-1.394.6A2.789,2.789,0,0,0,7.023-4.021Zm7.169-.21H14.9A1.628,1.628,0,0,0,15.944-4.5a.966.966,0,0,0,.322-.79.851.851,0,0,0-.348-.765,1.908,1.908,0,0,0-1.048-.232h-.679Zm0,.85V-.873H13.165v-6.28h1.774a2.915,2.915,0,0,1,1.8.455,1.635,1.635,0,0,1,.584,1.374A1.718,1.718,0,0,1,16.1-3.652L17.877-.873H16.708l-1.5-2.508ZM20.956-.873H19.93v-5.4H18.083v-.881H22.8v.881H20.956Zm3.827,0H23.765v-6.28h3.544v.868H24.783v1.963H27.15v.872H24.783Zm9.239-3.148a3.435,3.435,0,0,1-.767,2.384,2.773,2.773,0,0,1-2.171.85A2.792,2.792,0,0,1,28.9-1.631a3.456,3.456,0,0,1-.762-2.4A3.4,3.4,0,0,1,28.9-6.418a2.825,2.825,0,0,1,2.188-.833,2.768,2.768,0,0,1,2.165.846A3.431,3.431,0,0,1,34.022-4.021Zm-4.793,0A2.816,2.816,0,0,0,29.7-2.262a1.653,1.653,0,0,0,1.387.6,1.65,1.65,0,0,0,1.381-.593,2.821,2.821,0,0,0,.466-1.765,2.827,2.827,0,0,0-.462-1.752,1.632,1.632,0,0,0-1.377-.6,1.667,1.667,0,0,0-1.394.6A2.789,2.789,0,0,0,29.229-4.021ZM35.371-.873v-6.28H36.4v5.4h2.659v.881Zm4.768,0v-6.28h1.027v6.28ZM48.4-4.021a3.435,3.435,0,0,1-.767,2.384,2.773,2.773,0,0,1-2.171.85,2.792,2.792,0,0,1-2.184-.844,3.456,3.456,0,0,1-.762-2.4,3.4,3.4,0,0,1,.767-2.388,2.825,2.825,0,0,1,2.188-.833,2.768,2.768,0,0,1,2.165.846A3.431,3.431,0,0,1,48.4-4.021Zm-4.793,0a2.816,2.816,0,0,0,.468,1.759,1.653,1.653,0,0,0,1.387.6,1.65,1.65,0,0,0,1.381-.593,2.821,2.821,0,0,0,.466-1.765,2.827,2.827,0,0,0-.462-1.752,1.632,1.632,0,0,0-1.377-.6,1.667,1.667,0,0,0-1.394.6A2.789,2.789,0,0,0,43.605-4.021ZM4.407,11.321H5.472l-2.2,6.28H2.191L0,11.321H1.057l1.31,3.9q.1.279.219.719t.15.655q.056-.326.172-.756t.189-.636ZM9.845,17.6l-.627-1.744h-2.4L6.2,17.6H5.12l2.349-6.305H8.586L10.936,17.6Zm-.9-2.629-.588-1.709q-.064-.172-.178-.541t-.157-.541a9.626,9.626,0,0,1-.339,1.155l-.567,1.636ZM11.765,17.6v-6.28h1.027v5.4H15.45V17.6Zm9.6-6.28v4.063a2.41,2.41,0,0,1-.3,1.218,1.989,1.989,0,0,1-.863.8,3,3,0,0,1-1.351.281,2.527,2.527,0,0,1-1.817-.619,2.239,2.239,0,0,1-.649-1.7V11.321h1.031v3.973a1.587,1.587,0,0,0,.361,1.147,1.487,1.487,0,0,0,1.108.369q1.452,0,1.452-1.525V11.321Zm5.416,6.28-.627-1.744h-2.4L23.143,17.6H22.06l2.349-6.305h1.117L27.876,17.6Zm-.9-2.629L25.3,13.262q-.064-.172-.178-.541t-.157-.541a9.626,9.626,0,0,1-.339,1.155l-.567,1.636ZM30.26,17.6H29.233V12.2H27.386v-.881h4.72V12.2H30.26Zm2.809,0v-6.28H34.1V17.6Zm8.26-3.148a3.435,3.435,0,0,1-.767,2.384,3.222,3.222,0,0,1-4.355.006,3.456,3.456,0,0,1-.762-2.4,3.4,3.4,0,0,1,.767-2.388,2.825,2.825,0,0,1,2.188-.833,2.768,2.768,0,0,1,2.165.846A3.431,3.431,0,0,1,41.329,14.452Zm-4.793,0A2.816,2.816,0,0,0,37,16.211a1.905,1.905,0,0,0,2.768.006,2.821,2.821,0,0,0,.466-1.765,2.827,2.827,0,0,0-.462-1.752,1.632,1.632,0,0,0-1.377-.6,1.667,1.667,0,0,0-1.394.6A2.789,2.789,0,0,0,36.535,14.452ZM47.909,17.6H46.65l-3.088-5h-.034l.021.279q.06.8.06,1.46V17.6h-.932v-6.28h1.246L47,16.3h.026q-.009-.1-.034-.719t-.026-.969v-3.29h.941ZM1.937,31.147a.98.98,0,0,0,.144.511,2.972,2.972,0,0,0,.4.511,2.464,2.464,0,0,0,.681-.513.822.822,0,0,0,.2-.535.571.571,0,0,0-.187-.447.715.715,0,0,0-.5-.168.792.792,0,0,0-.539.174A.587.587,0,0,0,1.937,31.147Zm.64,4.145a2.047,2.047,0,0,0,1.344-.46L2.276,33.213a2.157,2.157,0,0,0-.627.548,1.019,1.019,0,0,0-.172.582.872.872,0,0,0,.3.685A1.165,1.165,0,0,0,2.577,35.291ZM.412,34.411a1.748,1.748,0,0,1,.275-.981,2.887,2.887,0,0,1,.992-.831,3.642,3.642,0,0,1-.556-.805,1.639,1.639,0,0,1-.148-.681,1.256,1.256,0,0,1,.466-1.031A1.929,1.929,0,0,1,2.693,29.7a1.791,1.791,0,0,1,1.194.367,1.23,1.23,0,0,1,.434.99,1.478,1.478,0,0,1-.29.889,3.173,3.173,0,0,1-.969.8l1.486,1.435a3.882,3.882,0,0,0,.58-1.349H6.168a4.733,4.733,0,0,1-.962,1.989L6.5,36.073H5.2l-.64-.623a3.229,3.229,0,0,1-.934.53,3.226,3.226,0,0,1-1.1.178,2.353,2.353,0,0,1-1.551-.468A1.576,1.576,0,0,1,.412,34.411Zm13.109,1.662-.627-1.744h-2.4l-.614,1.744H8.8l2.349-6.305h1.117l2.349,6.305Zm-.9-2.629-.588-1.709q-.064-.172-.178-.541t-.157-.541a9.627,9.627,0,0,1-.339,1.155l-.567,1.636Zm5.313-2.861a1.692,1.692,0,0,0-1.392.627,2.681,2.681,0,0,0-.507,1.731,2.7,2.7,0,0,0,.488,1.748,1.722,1.722,0,0,0,1.411.593,3.707,3.707,0,0,0,.773-.079q.374-.079.777-.2v.881a4.713,4.713,0,0,1-1.675.279,2.677,2.677,0,0,1-2.118-.835,3.5,3.5,0,0,1-.739-2.39,3.862,3.862,0,0,1,.359-1.714,2.56,2.56,0,0,1,1.037-1.125,3.137,3.137,0,0,1,1.594-.391,3.955,3.955,0,0,1,1.778.4l-.369.855a5.515,5.515,0,0,0-.672-.264A2.422,2.422,0,0,0,17.937,30.584Zm5.4,0a1.692,1.692,0,0,0-1.392.627,2.681,2.681,0,0,0-.507,1.731,2.7,2.7,0,0,0,.488,1.748,1.722,1.722,0,0,0,1.411.593,3.707,3.707,0,0,0,.773-.079q.374-.079.777-.2v.881a4.713,4.713,0,0,1-1.675.279,2.677,2.677,0,0,1-2.118-.835,3.5,3.5,0,0,1-.739-2.39,3.862,3.862,0,0,1,.359-1.714,2.56,2.56,0,0,1,1.037-1.125,3.137,3.137,0,0,1,1.594-.391,3.955,3.955,0,0,1,1.778.4l-.369.855a5.515,5.515,0,0,0-.672-.264A2.422,2.422,0,0,0,23.336,30.584Zm8.3,2.341a3.435,3.435,0,0,1-.767,2.384,2.773,2.773,0,0,1-2.171.85,2.792,2.792,0,0,1-2.184-.844,3.456,3.456,0,0,1-.762-2.4,3.4,3.4,0,0,1,.767-2.388,2.825,2.825,0,0,1,2.188-.833,2.768,2.768,0,0,1,2.165.846A3.431,3.431,0,0,1,31.639,32.925Zm-4.793,0a2.816,2.816,0,0,0,.468,1.759,1.905,1.905,0,0,0,2.768.006,2.821,2.821,0,0,0,.466-1.765,2.827,2.827,0,0,0-.462-1.752,1.632,1.632,0,0,0-1.377-.6,1.667,1.667,0,0,0-1.394.6A2.789,2.789,0,0,0,26.845,32.925ZM37.91,29.794v4.063a2.41,2.41,0,0,1-.3,1.218,1.989,1.989,0,0,1-.863.8,3,3,0,0,1-1.351.281,2.527,2.527,0,0,1-1.817-.619,2.239,2.239,0,0,1-.649-1.7V29.794h1.031v3.973a1.587,1.587,0,0,0,.361,1.147,1.487,1.487,0,0,0,1.108.369q1.452,0,1.452-1.525V29.794Zm6.838,6.28H43.489l-3.088-5h-.034l.021.279q.06.8.06,1.46v3.264h-.932v-6.28h1.246l3.08,4.978h.026q-.009-.1-.034-.719t-.026-.969v-3.29h.941Zm3.827,0H47.548v-5.4H45.7v-.881h4.72v.881H48.575Zm2.809,0v-6.28H52.41v6.28Zm7.916,0H58.041l-3.088-5h-.034l.021.279q.06.8.06,1.46v3.264h-.932v-6.28h1.246l3.08,4.978h.026q-.009-.1-.034-.719t-.026-.969v-3.29H59.3Zm4.227-3.406h2.311V35.82a6.688,6.688,0,0,1-1.089.262,7.708,7.708,0,0,1-1.127.077,2.832,2.832,0,0,1-2.2-.844,3.4,3.4,0,0,1-.773-2.382,3.176,3.176,0,0,1,.872-2.373,3.278,3.278,0,0,1,2.4-.857,4.676,4.676,0,0,1,1.864.378l-.361.855a3.628,3.628,0,0,0-1.529-.352,2.059,2.059,0,0,0-1.589.631,2.444,2.444,0,0,0-.584,1.727,2.578,2.578,0,0,0,.526,1.75,1.908,1.908,0,0,0,1.514.6,4.976,4.976,0,0,0,1.065-.125V33.548h-1.3Z" transform="translate(153.196 80.67)" fill="#fff"/><path d="M2.715,6.378.893,1.134H.859Q.932,2.3.932,3.325V6.378H0V.1H1.447l1.744,5h.026l1.8-5H6.464v6.28H5.476V3.273q0-.468.024-1.22t.041-.911H5.506L3.621,6.378Zm5.4,0V.1H9.145v6.28Zm7.792-3.2a3.129,3.129,0,0,1-.863,2.377,3.468,3.468,0,0,1-2.487.823H10.8V.1h1.941a3.212,3.212,0,0,1,2.332.808A3.017,3.017,0,0,1,15.909,3.178Zm-1.082.034q0-2.255-2.109-2.255h-.889V5.515h.73A2.02,2.02,0,0,0,14.827,3.213Zm7.538-.034A3.129,3.129,0,0,1,21.5,5.556a3.468,3.468,0,0,1-2.487.823H17.258V.1H19.2a3.212,3.212,0,0,1,2.332.808A3.017,3.017,0,0,1,22.365,3.178Zm-1.082.034q0-2.255-2.109-2.255h-.889V5.515h.73A2.02,2.02,0,0,0,21.283,3.213Zm2.431,3.166V.1H24.74V5.5H27.4v.881Zm8.32,0H28.482V.1h3.552V.966H29.508V2.676h2.367v.859H29.508V5.506h2.526ZM41.251,3.23a3.435,3.435,0,0,1-.767,2.384,3.222,3.222,0,0,1-4.355.006,3.456,3.456,0,0,1-.762-2.4A3.4,3.4,0,0,1,36.134.833,2.825,2.825,0,0,1,38.322,0a2.768,2.768,0,0,1,2.165.846A3.431,3.431,0,0,1,41.251,3.23Zm-4.793,0a2.816,2.816,0,0,0,.468,1.759A1.905,1.905,0,0,0,39.694,5,2.821,2.821,0,0,0,40.16,3.23,2.827,2.827,0,0,0,39.7,1.478a1.632,1.632,0,0,0-1.377-.6,1.667,1.667,0,0,0-1.394.6A2.789,2.789,0,0,0,36.458,3.23Zm7.16,3.148H42.6V.1h3.544V.966H43.618V2.929h2.367V3.8H43.618Zm4.682,0H47.282V.1h3.544V.966H48.3V2.929h2.367V3.8H48.3Zm3.664,0V.1H52.99v6.28ZM57.32.889a1.692,1.692,0,0,0-1.392.627,2.681,2.681,0,0,0-.507,1.731A2.7,2.7,0,0,0,55.909,5a1.722,1.722,0,0,0,1.411.593,3.707,3.707,0,0,0,.773-.079q.374-.079.777-.2v.881a4.713,4.713,0,0,1-1.675.279,2.677,2.677,0,0,1-2.118-.835,3.5,3.5,0,0,1-.739-2.39A3.862,3.862,0,0,1,54.7,1.525,2.56,2.56,0,0,1,55.735.4,3.137,3.137,0,0,1,57.328.009a3.955,3.955,0,0,1,1.778.4l-.369.855A5.515,5.515,0,0,0,58.065,1,2.422,2.422,0,0,0,57.32.889Zm6.456,5.489H60.223V.1h3.552V.966H61.25V2.676h2.367v.859H61.25V5.506h2.526Z" transform="translate(119.431 276.332) rotate(-90)" fill="#fff"/><path d="M0,.1H1.864A3.538,3.538,0,0,1,3.739.477a1.323,1.323,0,0,1,.578,1.194,1.447,1.447,0,0,1-.283.915,1.268,1.268,0,0,1-.816.46v.043a1.62,1.62,0,0,1,.973.492,1.488,1.488,0,0,1,.311.994A1.612,1.612,0,0,1,3.911,5.9a2.541,2.541,0,0,1-1.643.479H0ZM1.027,2.693h.988a1.691,1.691,0,0,0,.941-.2.781.781,0,0,0,.3-.694.7.7,0,0,0-.32-.64,2,2,0,0,0-1.016-.2H1.027Zm0,.833V5.515H2.118a1.606,1.606,0,0,0,.973-.247.912.912,0,0,0,.329-.78.828.828,0,0,0-.335-.726,1.775,1.775,0,0,0-1.018-.236ZM9.7,6.378,9.076,4.635h-2.4L6.06,6.378H4.978L7.327.073H8.444l2.349,6.305Zm-.9-2.629L8.217,2.04q-.064-.172-.178-.541T7.882.958a9.626,9.626,0,0,1-.339,1.155L6.975,3.75ZM14.294.889a1.692,1.692,0,0,0-1.392.627A2.681,2.681,0,0,0,12.4,3.247,2.7,2.7,0,0,0,12.883,5a1.722,1.722,0,0,0,1.411.593,3.707,3.707,0,0,0,.773-.079q.374-.079.777-.2v.881a4.713,4.713,0,0,1-1.675.279,2.677,2.677,0,0,1-2.118-.835,3.5,3.5,0,0,1-.739-2.39,3.862,3.862,0,0,1,.359-1.714A2.56,2.56,0,0,1,12.709.4,3.137,3.137,0,0,1,14.3.009a3.955,3.955,0,0,1,1.778.4l-.369.855A5.515,5.515,0,0,0,15.039,1,2.422,2.422,0,0,0,14.294.889Zm7.873,5.489h-1.19L19.006,3.535l-.606.494V6.378H17.374V.1H18.4v3q.421-.515.838-.992L20.934.1H22.1q-1.645,1.933-2.358,2.753ZM31.208,3.23a3.435,3.435,0,0,1-.767,2.384,2.773,2.773,0,0,1-2.171.85,2.792,2.792,0,0,1-2.184-.844,3.456,3.456,0,0,1-.762-2.4A3.4,3.4,0,0,1,26.09.833,2.825,2.825,0,0,1,28.279,0a2.768,2.768,0,0,1,2.165.846A3.431,3.431,0,0,1,31.208,3.23Zm-4.793,0a2.816,2.816,0,0,0,.468,1.759A1.905,1.905,0,0,0,29.651,5a2.821,2.821,0,0,0,.466-1.765,2.827,2.827,0,0,0-.462-1.752,1.632,1.632,0,0,0-1.377-.6,1.667,1.667,0,0,0-1.394.6A2.789,2.789,0,0,0,26.415,3.23Zm7.336,3.148H32.733V.1h3.544V.966H33.751V2.929h2.367V3.8H33.751Zm4.858,0H37.591V.1h3.544V.966H38.609V2.929h2.367V3.8H38.609Zm3.84,0V.1h1.027v6.28ZM47.98.889a1.692,1.692,0,0,0-1.392.627,2.681,2.681,0,0,0-.507,1.731A2.7,2.7,0,0,0,46.569,5a1.722,1.722,0,0,0,1.411.593,3.707,3.707,0,0,0,.773-.079q.374-.079.777-.2v.881a4.713,4.713,0,0,1-1.675.279,2.677,2.677,0,0,1-2.118-.835A3.5,3.5,0,0,1,45,3.239a3.862,3.862,0,0,1,.359-1.714A2.56,2.56,0,0,1,46.4.4,3.137,3.137,0,0,1,47.989.009a3.955,3.955,0,0,1,1.778.4l-.369.855A5.515,5.515,0,0,0,48.726,1,2.422,2.422,0,0,0,47.98.889Zm6.632,5.489H51.06V.1h3.552V.966H52.086V2.676h2.367v.859H52.086V5.506h2.526Z" transform="translate(119.431 118.389) rotate(-90)" fill="#fff"/><path d="M4.725-.871,4.1-2.615H1.7L1.082-.871H0L2.349-7.177H3.466L5.816-.871ZM3.827-3.5,3.239-5.21q-.064-.172-.178-.541T2.9-6.292a9.626,9.626,0,0,1-.339,1.155L2-3.5ZM11.876-.871H10.618l-3.088-5H7.5l.021.279q.06.8.06,1.46V-.871H6.645v-6.28H7.89l3.08,4.978H11q-.009-.1-.034-.719t-.026-.969v-3.29h.941Zm5.554,0L16.8-2.615H14.4L13.788-.871H12.705l2.349-6.305h1.117L18.521-.871Zm-.9-2.629L15.944-5.21q-.064-.172-.178-.541t-.157-.541a9.626,9.626,0,0,1-.339,1.155L14.7-3.5ZM19.35-.871v-6.28h1.027v5.4h2.659v.881Zm6.28-3.415,1.486-2.865h1.117L26.141-3.307V-.871H25.11v-2.4L23.027-7.151h1.117Zm7.053,1.709a1.58,1.58,0,0,1-.606,1.314,2.636,2.636,0,0,1-1.671.477,3.987,3.987,0,0,1-1.744-.331v-.971a4.74,4.74,0,0,0,.913.318,3.87,3.87,0,0,0,.9.116,1.431,1.431,0,0,0,.9-.232.756.756,0,0,0,.29-.623.781.781,0,0,0-.266-.6,4.009,4.009,0,0,0-1.1-.58,2.909,2.909,0,0,1-1.211-.795,1.681,1.681,0,0,1-.352-1.074,1.5,1.5,0,0,1,.558-1.237,2.316,2.316,0,0,1,1.5-.451,4.4,4.4,0,0,1,1.8.4l-.326.838a3.923,3.923,0,0,0-1.495-.352,1.147,1.147,0,0,0-.756.217.712.712,0,0,0-.258.573.807.807,0,0,0,.1.419,1.053,1.053,0,0,0,.339.329,5.74,5.74,0,0,0,.85.408,4.653,4.653,0,0,1,1.014.537,1.579,1.579,0,0,1,.472.563A1.692,1.692,0,0,1,32.682-2.577ZM33.9-.871v-6.28h1.027v6.28ZM40.2-2.577A1.58,1.58,0,0,1,39.6-1.262a2.636,2.636,0,0,1-1.671.477,3.987,3.987,0,0,1-1.744-.331v-.971a4.74,4.74,0,0,0,.913.318,3.87,3.87,0,0,0,.9.116,1.431,1.431,0,0,0,.9-.232.756.756,0,0,0,.29-.623.78.78,0,0,0-.266-.6,4.009,4.009,0,0,0-1.1-.58,2.909,2.909,0,0,1-1.211-.795,1.681,1.681,0,0,1-.352-1.074,1.5,1.5,0,0,1,.558-1.237,2.316,2.316,0,0,1,1.5-.451,4.4,4.4,0,0,1,1.8.4l-.326.838a3.923,3.923,0,0,0-1.495-.352,1.147,1.147,0,0,0-.756.217.712.712,0,0,0-.258.573.807.807,0,0,0,.1.419,1.053,1.053,0,0,0,.339.329,5.74,5.74,0,0,0,.85.408,4.653,4.653,0,0,1,1.014.537,1.579,1.579,0,0,1,.472.563A1.692,1.692,0,0,1,40.2-2.577ZM4.987,13.22a1.831,1.831,0,0,1-.644,1.508,2.838,2.838,0,0,1-1.834.524H1.856V17.6H.829v-6.28H2.637A2.736,2.736,0,0,1,4.4,11.8,1.727,1.727,0,0,1,4.987,13.22ZM1.856,14.389H2.4a1.955,1.955,0,0,0,1.16-.275,1,1,0,0,0,.369-.859.975.975,0,0,0-.331-.808,1.633,1.633,0,0,0-1.031-.266H1.856ZM9.793,17.6H6.241v-6.28H9.793v.868H7.268V13.9H9.634v.859H7.268V16.73H9.793Zm2.384-3.359h.713a1.628,1.628,0,0,0,1.039-.266.966.966,0,0,0,.322-.79.851.851,0,0,0-.348-.765,1.908,1.908,0,0,0-1.048-.232h-.679Zm0,.85V17.6H11.15v-6.28h1.774a2.915,2.915,0,0,1,1.8.455,1.635,1.635,0,0,1,.584,1.374,1.718,1.718,0,0,1-1.22,1.671L15.862,17.6H14.694l-1.5-2.508ZM17.791,17.6H16.773v-6.28h3.544v.868H17.791v1.963h2.367v.872H17.791Zm9.239-3.148a3.435,3.435,0,0,1-.767,2.384,2.773,2.773,0,0,1-2.171.85,2.792,2.792,0,0,1-2.184-.844,3.456,3.456,0,0,1-.762-2.4,3.4,3.4,0,0,1,.767-2.388,2.825,2.825,0,0,1,2.188-.833,2.768,2.768,0,0,1,2.165.846A3.431,3.431,0,0,1,27.03,14.453Zm-4.793,0a2.816,2.816,0,0,0,.468,1.759,1.905,1.905,0,0,0,2.768.006,2.821,2.821,0,0,0,.466-1.765,2.827,2.827,0,0,0-.462-1.752,1.632,1.632,0,0,0-1.377-.6,1.667,1.667,0,0,0-1.394.6A2.789,2.789,0,0,0,22.236,14.453Zm7.169-.21h.713a1.628,1.628,0,0,0,1.039-.266.966.966,0,0,0,.322-.79.851.851,0,0,0-.348-.765,1.908,1.908,0,0,0-1.048-.232h-.679Zm0,.85V17.6H28.379v-6.28h1.774a2.915,2.915,0,0,1,1.8.455,1.635,1.635,0,0,1,.584,1.374,1.718,1.718,0,0,1-1.22,1.671L33.09,17.6H31.922l-1.5-2.508Zm7.31,2.508-1.821-5.244H34.86q.073,1.168.073,2.191V17.6H34v-6.28h1.447l1.744,5h.026l1.8-5h1.452V17.6h-.988V14.5q0-.468.024-1.22t.041-.911h-.034L37.622,17.6Zm9.3,0-.627-1.744h-2.4L42.372,17.6H41.29L43.639,11.3h1.117L47.106,17.6Zm-.9-2.629-.588-1.709q-.064-.172-.178-.541t-.157-.541a9.627,9.627,0,0,1-.339,1.155l-.567,1.636ZM53.166,17.6H51.908l-3.088-5h-.034l.021.279q.06.8.06,1.46V17.6h-.932v-6.28H49.18L52.26,16.3h.026q-.009-.1-.034-.719t-.026-.969v-3.29h.941Zm4.33-5.489a1.692,1.692,0,0,0-1.392.627A2.681,2.681,0,0,0,55.6,14.47a2.7,2.7,0,0,0,.488,1.748,1.722,1.722,0,0,0,1.411.593,3.707,3.707,0,0,0,.773-.079q.374-.079.777-.2v.881a4.713,4.713,0,0,1-1.675.279,2.677,2.677,0,0,1-2.118-.835,3.5,3.5,0,0,1-.739-2.39,3.863,3.863,0,0,1,.359-1.714,2.56,2.56,0,0,1,1.037-1.125,3.137,3.137,0,0,1,1.594-.391,3.955,3.955,0,0,1,1.778.4l-.369.855a5.515,5.515,0,0,0-.672-.264A2.422,2.422,0,0,0,57.5,12.112ZM63.952,17.6H60.4v-6.28h3.552v.868H61.426V13.9h2.367v.859H61.426V16.73h2.526ZM1.856,32.716h.713a1.628,1.628,0,0,0,1.039-.266.966.966,0,0,0,.322-.79.851.851,0,0,0-.348-.765,1.908,1.908,0,0,0-1.048-.232H1.856Zm0,.85v2.508H.829v-6.28H2.6a2.915,2.915,0,0,1,1.8.455,1.635,1.635,0,0,1,.584,1.374A1.718,1.718,0,0,1,3.767,33.3l1.774,2.779H4.373l-1.5-2.508Zm4.6,2.508v-6.28H7.478v6.28Zm6.305-1.705a1.58,1.58,0,0,1-.606,1.314,2.636,2.636,0,0,1-1.671.477,3.987,3.987,0,0,1-1.744-.331v-.971a4.74,4.74,0,0,0,.913.318,3.87,3.87,0,0,0,.9.116,1.431,1.431,0,0,0,.9-.232.756.756,0,0,0,.29-.623.78.78,0,0,0-.266-.6,4.009,4.009,0,0,0-1.1-.58,2.909,2.909,0,0,1-1.211-.795,1.681,1.681,0,0,1-.352-1.074,1.5,1.5,0,0,1,.558-1.237,2.316,2.316,0,0,1,1.5-.451,4.4,4.4,0,0,1,1.8.4l-.326.838a3.923,3.923,0,0,0-1.495-.352,1.147,1.147,0,0,0-.756.217.712.712,0,0,0-.258.573.807.807,0,0,0,.1.419,1.053,1.053,0,0,0,.339.329,5.74,5.74,0,0,0,.85.408,4.653,4.653,0,0,1,1.014.537,1.579,1.579,0,0,1,.472.563A1.693,1.693,0,0,1,12.757,34.369Zm6.009,1.705h-1.19L15.6,33.231,15,33.725v2.349H13.972v-6.28H15v3q.421-.515.838-.992l1.7-2.006H18.7q-1.645,1.933-2.358,2.753ZM3.5,49.058a1.692,1.692,0,0,0-1.392.627,3.292,3.292,0,0,0-.019,3.479,1.722,1.722,0,0,0,1.411.593,3.707,3.707,0,0,0,.773-.079q.374-.079.777-.2v.881a4.713,4.713,0,0,1-1.675.279A2.677,2.677,0,0,1,1.259,53.8a3.5,3.5,0,0,1-.739-2.39,3.862,3.862,0,0,1,.359-1.714,2.56,2.56,0,0,1,1.037-1.125,3.137,3.137,0,0,1,1.594-.391,3.955,3.955,0,0,1,1.778.4l-.369.855a5.514,5.514,0,0,0-.672-.264A2.422,2.422,0,0,0,3.5,49.058ZM11.8,51.4a3.435,3.435,0,0,1-.767,2.384,2.773,2.773,0,0,1-2.171.85,2.792,2.792,0,0,1-2.184-.844,3.456,3.456,0,0,1-.762-2.4A3.4,3.4,0,0,1,6.686,49a2.825,2.825,0,0,1,2.188-.833,2.768,2.768,0,0,1,2.165.846A3.431,3.431,0,0,1,11.8,51.4Zm-4.793,0a2.816,2.816,0,0,0,.468,1.759,1.653,1.653,0,0,0,1.387.6,1.65,1.65,0,0,0,1.381-.593,3.567,3.567,0,0,0,0-3.518,1.632,1.632,0,0,0-1.377-.6,1.667,1.667,0,0,0-1.394.6A2.789,2.789,0,0,0,7.01,51.4Zm8.857,3.148L14.045,49.3h-.034q.073,1.168.073,2.191v3.054h-.932v-6.28H14.6l1.744,5h.026l1.8-5h1.452v6.28h-.988V51.442q0-.468.024-1.22t.041-.911h-.034l-1.886,5.236Zm9.561-4.381a1.831,1.831,0,0,1-.644,1.508,2.838,2.838,0,0,1-1.834.524H22.3v2.349H21.27v-6.28h1.808a2.736,2.736,0,0,1,1.763.481A1.727,1.727,0,0,1,25.428,50.166ZM22.3,51.334h.545A1.955,1.955,0,0,0,24,51.06a1,1,0,0,0,.369-.859.975.975,0,0,0-.331-.808,1.633,1.633,0,0,0-1.031-.266H22.3Zm4.385,3.213v-6.28h1.027v5.4h2.659v.881Zm4.768,0v-6.28h1.027v6.28Zm6.58,0L37.4,52.8H35l-.614,1.744H33.305l2.349-6.305h1.117l2.349,6.305Zm-.9-2.629-.588-1.709q-.064-.172-.178-.541t-.157-.541a9.627,9.627,0,0,1-.339,1.155L35.3,51.919Zm8.049,2.629H43.923l-3.088-5H40.8l.021.279q.06.8.06,1.46v3.264H39.95v-6.28H41.2l3.08,4.978H44.3q-.009-.1-.034-.719t-.026-.969v-3.29h.941Zm4.33-5.489a1.692,1.692,0,0,0-1.392.627,3.292,3.292,0,0,0-.019,3.479,1.722,1.722,0,0,0,1.411.593,3.707,3.707,0,0,0,.773-.079q.374-.079.777-.2v.881a4.713,4.713,0,0,1-1.675.279,2.677,2.677,0,0,1-2.118-.835,3.5,3.5,0,0,1-.739-2.39,3.862,3.862,0,0,1,.359-1.714,2.56,2.56,0,0,1,1.037-1.125,3.137,3.137,0,0,1,1.594-.391,3.955,3.955,0,0,1,1.778.4l-.369.855a5.514,5.514,0,0,0-.672-.264A2.422,2.422,0,0,0,49.511,49.058Zm6.456,5.489H52.415v-6.28h3.552v.868H53.441v1.709h2.367V51.7H53.441v1.972h2.526Z" transform="translate(153.985 219.955)" fill="#fff"/><path d="M.38,256.861H-.5v-3.519H.38Zm0-7.037H-.5v-3.519H.38Zm0-7.037H-.5v-3.519H.38Zm0-7.037H-.5v-3.519H.38Zm0-7.037H-.5v-3.519H.38Zm0-7.037H-.5v-3.519H.38Zm0-7.037H-.5v-3.519H.38Zm0-7.037H-.5v-3.519H.38Zm0-7.037H-.5v-3.519H.38Zm0-7.037H-.5v-3.519H.38Zm0-7.037H-.5V182.97H.38Zm0-7.037H-.5v-3.519H.38Zm0-7.037H-.5v-3.519H.38Zm0-7.037H-.5v-3.519H.38Zm0-7.037H-.5V154.82H.38Zm0-7.037H-.5v-3.519H.38Zm0-7.037H-.5v-3.519H.38Zm0-7.037H-.5v-3.519H.38Zm0-7.037H-.5v-3.519H.38Zm0-7.037H-.5v-3.519H.38Zm0-7.037H-.5V112.6H.38Zm0-7.037H-.5v-3.519H.38Zm0-7.037H-.5V98.522H.38ZM.38,95H-.5V91.485H.38Zm0-7.037H-.5V84.447H.38Zm0-7.037H-.5V77.41H.38Zm0-7.037H-.5V70.373H.38Zm0-7.037H-.5V63.336H.38Zm0-7.037H-.5V56.3H.38Zm0-7.037H-.5V49.261H.38Zm0-7.037H-.5V42.224H.38Zm0-7.037H-.5V35.186H.38Zm0-7.037H-.5V28.149H.38Zm0-7.037H-.5V21.112H.38Zm0-7.037H-.5V14.075H.38Zm0-7.037H-.5V7.037H.38Zm0-7.037H-.5V0H.38Z" transform="translate(137.288 40.464)" fill="#fff"/><path d="M10.646,0H126.568a10.646,10.646,0,1,1,0,21.292H10.646A10.646,10.646,0,1,1,10.646,0Z" transform="translate(108.247)" fill="#7a0101"/><path d="M10.646,0H78.675a10.646,10.646,0,1,1,0,21.292H10.646A10.646,10.646,0,1,1,10.646,0Z" transform="translate(0 61.576)" fill="#b11117"/><path d="M10.646,0H78.675a10.646,10.646,0,1,1,0,21.292H10.646A10.646,10.646,0,1,1,10.646,0Z" transform="translate(0 104.68)" fill="#b11117"/><path d="M10.646,0H57.968a10.646,10.646,0,1,1,0,21.292H10.646A10.646,10.646,0,1,1,10.646,0Z" transform="translate(264.386 85.327)" fill="#7a0101"/><path d="M-30.886-.863l-1.821-5.244h-.034q.073,1.168.073,2.191V-.863H-33.6v-6.28h1.447l1.744,5h.026l1.8-5h1.452v6.28h-.988V-3.968q0-.468.024-1.22t.041-.911h-.034L-29.979-.863Zm9.475,0-.627-1.744h-2.4l-.614,1.744h-1.082l2.349-6.305h1.117l2.349,6.305Zm-.9-2.629L-22.9-5.2q-.064-.172-.178-.541t-.157-.541a9.626,9.626,0,0,1-.339,1.155l-.567,1.636Zm4.02-.73h.713a1.628,1.628,0,0,0,1.039-.266.966.966,0,0,0,.322-.79.851.851,0,0,0-.348-.765,1.908,1.908,0,0,0-1.048-.232h-.679Zm0,.85V-.863h-1.027v-6.28h1.774a2.915,2.915,0,0,1,1.8.455,1.635,1.635,0,0,1,.584,1.374,1.718,1.718,0,0,1-1.22,1.671L-14.6-.863h-1.168l-1.5-2.508ZM-8.723-.863h-1.19l-1.972-2.843-.606.494V-.863h-1.027v-6.28h1.027v3q.421-.515.838-.992l1.7-2.006h1.168q-1.645,1.933-2.358,2.753Zm4.557,0H-7.718v-6.28h3.552v.868H-6.691v1.709h2.367v.859H-6.691v1.972h2.526Zm3.7,0H-1.49v-5.4H-3.337v-.881h4.72v.881H-.463Zm10.553-3.2a3.129,3.129,0,0,1-.863,2.377,3.468,3.468,0,0,1-2.487.823H4.983v-6.28H6.924a3.212,3.212,0,0,1,2.332.808A3.017,3.017,0,0,1,10.09-4.063Zm-1.082.034q0-2.255-2.109-2.255H6.009v4.557h.73A2.02,2.02,0,0,0,9.007-4.028ZM15.334-.863l-.627-1.744h-2.4L11.692-.863H10.609l2.349-6.305h1.117L16.425-.863Zm-.9-2.629L13.848-5.2q-.064-.172-.178-.541t-.157-.541a9.626,9.626,0,0,1-.339,1.155l-.567,1.636ZM18.985-.863H17.958v-5.4H16.111v-.881h4.72v.881H18.985Zm6.267,0-.627-1.744h-2.4L21.609-.863H20.527l2.349-6.305h1.117L26.342-.863Zm-.9-2.629L23.765-5.2q-.064-.172-.178-.541t-.157-.541a9.627,9.627,0,0,1-.339,1.155l-.567,1.636Z" transform="translate(179.353 14.938)" fill="#fff"/><path d="M-35.124-2.578a1.58,1.58,0,0,1-.606,1.314A2.636,2.636,0,0,1-37.4-.787a3.987,3.987,0,0,1-1.744-.331v-.971a4.74,4.74,0,0,0,.913.318,3.87,3.87,0,0,0,.9.116,1.431,1.431,0,0,0,.9-.232.756.756,0,0,0,.29-.623.78.78,0,0,0-.266-.6,4.009,4.009,0,0,0-1.1-.58,2.909,2.909,0,0,1-1.211-.795,1.681,1.681,0,0,1-.352-1.074,1.5,1.5,0,0,1,.558-1.237,2.316,2.316,0,0,1,1.5-.451,4.4,4.4,0,0,1,1.8.4l-.326.838a3.923,3.923,0,0,0-1.495-.352,1.147,1.147,0,0,0-.756.217.712.712,0,0,0-.258.573.807.807,0,0,0,.1.419,1.053,1.053,0,0,0,.339.329,5.739,5.739,0,0,0,.85.408,4.653,4.653,0,0,1,1.014.537,1.579,1.579,0,0,1,.472.563A1.692,1.692,0,0,1-35.124-2.578Zm6.314-4.574v4.063a2.41,2.41,0,0,1-.3,1.218,1.989,1.989,0,0,1-.863.8,3,3,0,0,1-1.351.281,2.527,2.527,0,0,1-1.817-.619,2.239,2.239,0,0,1-.649-1.7V-7.152h1.031v3.973A1.587,1.587,0,0,0-32.4-2.032a1.487,1.487,0,0,0,1.108.369q1.452,0,1.452-1.525V-7.152Zm1.782,0h1.864a3.538,3.538,0,0,1,1.875.378,1.323,1.323,0,0,1,.578,1.194,1.447,1.447,0,0,1-.283.915,1.268,1.268,0,0,1-.816.46v.043a1.62,1.62,0,0,1,.973.492,1.488,1.488,0,0,1,.311.994,1.612,1.612,0,0,1-.591,1.325,2.541,2.541,0,0,1-1.643.479h-2.268ZM-26-4.558h.988a1.691,1.691,0,0,0,.941-.2.781.781,0,0,0,.3-.694.7.7,0,0,0-.32-.64,2,2,0,0,0-1.016-.2H-26Zm0,.833v1.989h1.091a1.606,1.606,0,0,0,.973-.247.912.912,0,0,0,.329-.78.828.828,0,0,0-.335-.726,1.775,1.775,0,0,0-1.018-.236Zm8.577,1.147a1.58,1.58,0,0,1-.606,1.314A2.636,2.636,0,0,1-19.7-.787a3.987,3.987,0,0,1-1.744-.331v-.971a4.74,4.74,0,0,0,.913.318,3.87,3.87,0,0,0,.9.116,1.431,1.431,0,0,0,.9-.232.756.756,0,0,0,.29-.623.78.78,0,0,0-.266-.6,4.009,4.009,0,0,0-1.1-.58,2.909,2.909,0,0,1-1.211-.795,1.681,1.681,0,0,1-.352-1.074,1.5,1.5,0,0,1,.558-1.237,2.316,2.316,0,0,1,1.5-.451,4.4,4.4,0,0,1,1.8.4l-.326.838a3.923,3.923,0,0,0-1.495-.352,1.147,1.147,0,0,0-.756.217.712.712,0,0,0-.258.573.807.807,0,0,0,.1.419,1.053,1.053,0,0,0,.339.329,5.74,5.74,0,0,0,.85.408,4.653,4.653,0,0,1,1.014.537,1.579,1.579,0,0,1,.472.563A1.693,1.693,0,0,1-17.424-2.578Zm4.063-3.784a1.692,1.692,0,0,0-1.392.627A2.681,2.681,0,0,0-15.259-4a2.7,2.7,0,0,0,.488,1.748,1.722,1.722,0,0,0,1.411.593,3.707,3.707,0,0,0,.773-.079q.374-.079.777-.2v.881a4.713,4.713,0,0,1-1.675.279A2.677,2.677,0,0,1-15.6-1.622a3.5,3.5,0,0,1-.739-2.39,3.862,3.862,0,0,1,.359-1.714,2.56,2.56,0,0,1,1.037-1.125,3.137,3.137,0,0,1,1.594-.391,3.955,3.955,0,0,1,1.778.4l-.369.855a5.515,5.515,0,0,0-.672-.264A2.422,2.422,0,0,0-13.361-6.362Zm4.106,2.13h.713A1.628,1.628,0,0,0-7.5-4.5a.966.966,0,0,0,.322-.79.851.851,0,0,0-.348-.765,1.908,1.908,0,0,0-1.048-.232h-.679Zm0,.85V-.873h-1.027v-6.28h1.774a2.915,2.915,0,0,1,1.8.455,1.635,1.635,0,0,1,.584,1.374,1.718,1.718,0,0,1-1.22,1.671L-5.569-.873H-6.738l-1.5-2.508ZM-4.483-.873v-6.28h1.027v6.28ZM2.535-5.254a1.831,1.831,0,0,1-.644,1.508,2.838,2.838,0,0,1-1.834.524H-.6V-.873H-1.622v-6.28H.186a2.736,2.736,0,0,1,1.763.481A1.727,1.727,0,0,1,2.535-5.254ZM-.6-4.085H-.05a1.955,1.955,0,0,0,1.16-.275,1,1,0,0,0,.369-.859.975.975,0,0,0-.331-.808A1.633,1.633,0,0,0,.117-6.293H-.6ZM6.135-.873H5.108v-5.4H3.261v-.881h4.72v.881H6.135Zm2.985,0v-6.28h1.027v6.28Zm8.436-3.148a3.435,3.435,0,0,1-.767,2.384,2.773,2.773,0,0,1-2.171.85,2.792,2.792,0,0,1-2.184-.844,3.456,3.456,0,0,1-.762-2.4,3.4,3.4,0,0,1,.767-2.388,2.825,2.825,0,0,1,2.188-.833,2.768,2.768,0,0,1,2.165.846A3.431,3.431,0,0,1,17.555-4.021Zm-4.793,0a2.816,2.816,0,0,0,.468,1.759,1.653,1.653,0,0,0,1.387.6A1.65,1.65,0,0,0,16-2.256a2.821,2.821,0,0,0,.466-1.765A2.827,2.827,0,0,0,16-5.773a1.632,1.632,0,0,0-1.377-.6,1.667,1.667,0,0,0-1.394.6A2.789,2.789,0,0,0,12.762-4.021ZM24.311-.873H23.053l-3.088-5H19.93l.021.279q.06.8.06,1.46V-.873H19.08v-6.28h1.246l3.08,4.978h.026q-.009-.1-.034-.719t-.026-.969v-3.29h.941Zm5.455-1.705a1.58,1.58,0,0,1-.606,1.314,2.636,2.636,0,0,1-1.671.477,3.987,3.987,0,0,1-1.744-.331v-.971a4.74,4.74,0,0,0,.913.318,3.87,3.87,0,0,0,.9.116,1.431,1.431,0,0,0,.9-.232.756.756,0,0,0,.29-.623.78.78,0,0,0-.266-.6,4.009,4.009,0,0,0-1.1-.58,2.909,2.909,0,0,1-1.211-.795,1.681,1.681,0,0,1-.352-1.074,1.5,1.5,0,0,1,.558-1.237,2.316,2.316,0,0,1,1.5-.451,4.4,4.4,0,0,1,1.8.4l-.326.838a3.923,3.923,0,0,0-1.495-.352,1.147,1.147,0,0,0-.756.217.712.712,0,0,0-.258.573.807.807,0,0,0,.1.419,1.053,1.053,0,0,0,.339.329,5.739,5.739,0,0,0,.85.408,4.653,4.653,0,0,1,1.014.537,1.579,1.579,0,0,1,.472.563A1.693,1.693,0,0,1,29.766-2.578Z" transform="translate(48.694 76.524)" fill="#fff"/><path d="M-35.412-.873h-1.027v-5.4h-1.847v-.881h4.72v.881h-1.847ZM-31.4-4.231h.713A1.628,1.628,0,0,0-29.648-4.5a.966.966,0,0,0,.322-.79.851.851,0,0,0-.348-.765,1.908,1.908,0,0,0-1.048-.232H-31.4Zm0,.85V-.873h-1.027v-6.28h1.774a2.915,2.915,0,0,1,1.8.455,1.635,1.635,0,0,1,.584,1.374,1.718,1.718,0,0,1-1.22,1.671l1.774,2.779h-1.168l-1.5-2.508Zm8.668,2.508-.627-1.744h-2.4l-.614,1.744h-1.082l2.349-6.305h1.117l2.349,6.305Zm-.9-2.629-.588-1.709q-.064-.172-.178-.541t-.157-.541a9.626,9.626,0,0,1-.339,1.155L-25.46-3.5ZM-15.4-.873h-1.259l-3.088-5h-.034l.021.279q.06.8.06,1.46V-.873h-.932v-6.28h1.246l3.08,4.978h.026q-.009-.1-.034-.719t-.026-.969v-3.29h.941ZM-9.95-2.578a1.58,1.58,0,0,1-.606,1.314,2.636,2.636,0,0,1-1.671.477,3.987,3.987,0,0,1-1.744-.331v-.971a4.74,4.74,0,0,0,.913.318,3.87,3.87,0,0,0,.9.116,1.431,1.431,0,0,0,.9-.232.756.756,0,0,0,.29-.623.781.781,0,0,0-.266-.6,4.009,4.009,0,0,0-1.1-.58,2.909,2.909,0,0,1-1.211-.795A1.681,1.681,0,0,1-13.9-5.554a1.5,1.5,0,0,1,.558-1.237,2.316,2.316,0,0,1,1.5-.451,4.4,4.4,0,0,1,1.8.4l-.326.838a3.923,3.923,0,0,0-1.495-.352,1.147,1.147,0,0,0-.756.217.712.712,0,0,0-.258.573.807.807,0,0,0,.1.419,1.053,1.053,0,0,0,.339.329,5.74,5.74,0,0,0,.85.408,4.653,4.653,0,0,1,1.014.537,1.579,1.579,0,0,1,.472.563A1.693,1.693,0,0,1-9.95-2.578ZM-4.663-.873-5.29-2.616h-2.4L-8.305-.873H-9.388l2.349-6.305h1.117L-3.572-.873Zm-.9-2.629-.588-1.709q-.064-.172-.178-.541t-.157-.541a9.626,9.626,0,0,1-.339,1.155L-7.39-3.5ZM-.071-6.362a1.692,1.692,0,0,0-1.392.627A2.681,2.681,0,0,0-1.97-4a2.7,2.7,0,0,0,.488,1.748,1.722,1.722,0,0,0,1.411.593A3.707,3.707,0,0,0,.7-1.742q.374-.079.777-.2v.881A4.713,4.713,0,0,1-.2-.787a2.677,2.677,0,0,1-2.118-.835,3.5,3.5,0,0,1-.739-2.39,3.862,3.862,0,0,1,.359-1.714A2.56,2.56,0,0,1-1.656-6.852,3.137,3.137,0,0,1-.063-7.242a3.955,3.955,0,0,1,1.778.4l-.369.855a5.515,5.515,0,0,0-.672-.264A2.422,2.422,0,0,0-.071-6.362ZM5.177-.873H4.151v-5.4H2.3v-.881h4.72v.881H5.177Zm2.985,0v-6.28H9.189v6.28ZM16.6-4.021a3.435,3.435,0,0,1-.767,2.384,2.773,2.773,0,0,1-2.171.85,2.792,2.792,0,0,1-2.184-.844,3.456,3.456,0,0,1-.762-2.4,3.4,3.4,0,0,1,.767-2.388,2.825,2.825,0,0,1,2.188-.833,2.768,2.768,0,0,1,2.165.846A3.431,3.431,0,0,1,16.6-4.021Zm-4.793,0a2.816,2.816,0,0,0,.468,1.759,1.653,1.653,0,0,0,1.387.6,1.65,1.65,0,0,0,1.381-.593,2.821,2.821,0,0,0,.466-1.765,2.827,2.827,0,0,0-.462-1.752,1.632,1.632,0,0,0-1.377-.6,1.667,1.667,0,0,0-1.394.6A2.789,2.789,0,0,0,11.8-4.021ZM23.354-.873H22.1l-3.088-5h-.034l.021.279q.06.8.06,1.46V-.873h-.932v-6.28h1.246l3.08,4.978h.026q-.009-.1-.034-.719t-.026-.969v-3.29h.941Zm5.455-1.705A1.58,1.58,0,0,1,28.2-1.263a2.636,2.636,0,0,1-1.671.477,3.987,3.987,0,0,1-1.744-.331v-.971a4.74,4.74,0,0,0,.913.318,3.87,3.87,0,0,0,.9.116,1.431,1.431,0,0,0,.9-.232.756.756,0,0,0,.29-.623.781.781,0,0,0-.266-.6,4.009,4.009,0,0,0-1.1-.58,2.909,2.909,0,0,1-1.211-.795,1.681,1.681,0,0,1-.352-1.074,1.5,1.5,0,0,1,.558-1.237,2.316,2.316,0,0,1,1.5-.451,4.4,4.4,0,0,1,1.8.4l-.326.838a3.923,3.923,0,0,0-1.495-.352,1.147,1.147,0,0,0-.756.217.712.712,0,0,0-.258.573.807.807,0,0,0,.1.419,1.053,1.053,0,0,0,.339.329,5.74,5.74,0,0,0,.85.408,4.653,4.653,0,0,1,1.014.537,1.579,1.579,0,0,1,.472.563A1.692,1.692,0,0,1,28.809-2.578Z" transform="translate(46.831 119.627)" fill="#fff"/><path d="M-20.4-4.231h.713A1.628,1.628,0,0,0-18.651-4.5a.966.966,0,0,0,.322-.79.851.851,0,0,0-.348-.765,1.908,1.908,0,0,0-1.048-.232H-20.4Zm0,.85V-.873H-21.43v-6.28h1.774a2.915,2.915,0,0,1,1.8.455,1.635,1.635,0,0,1,.584,1.374,1.718,1.718,0,0,1-1.22,1.671l1.774,2.779h-1.168l-1.5-2.508ZM-12.08-.873h-3.552v-6.28h3.552v.868h-2.526v1.709h2.367v.859h-2.367v1.972h2.526Zm5.691-4.381a1.831,1.831,0,0,1-.644,1.508,2.838,2.838,0,0,1-1.834.524H-9.52V-.873h-1.027v-6.28h1.808a2.736,2.736,0,0,1,1.763.481A1.727,1.727,0,0,1-6.389-5.254ZM-9.52-4.085h.545a1.955,1.955,0,0,0,1.16-.275,1,1,0,0,0,.369-.859.975.975,0,0,0-.331-.808,1.633,1.633,0,0,0-1.031-.266H-9.52ZM.617-4.021A3.435,3.435,0,0,1-.15-1.637a2.773,2.773,0,0,1-2.171.85,2.792,2.792,0,0,1-2.184-.844,3.456,3.456,0,0,1-.762-2.4A3.4,3.4,0,0,1-4.5-6.418a2.825,2.825,0,0,1,2.188-.833A2.768,2.768,0,0,1-.148-6.4,3.431,3.431,0,0,1,.617-4.021Zm-4.793,0a2.816,2.816,0,0,0,.468,1.759,1.653,1.653,0,0,0,1.387.6A1.65,1.65,0,0,0-.94-2.256,2.821,2.821,0,0,0-.474-4.021,2.827,2.827,0,0,0-.936-5.773a1.632,1.632,0,0,0-1.377-.6,1.667,1.667,0,0,0-1.394.6A2.789,2.789,0,0,0-4.177-4.021Zm7.345-.21h.713A1.628,1.628,0,0,0,4.92-4.5a.966.966,0,0,0,.322-.79.851.851,0,0,0-.348-.765,1.908,1.908,0,0,0-1.048-.232H3.168Zm0,.85V-.873H2.141v-6.28H3.915a2.915,2.915,0,0,1,1.8.455A1.635,1.635,0,0,1,6.3-5.322a1.718,1.718,0,0,1-1.22,1.671L6.853-.873H5.685l-1.5-2.508ZM10.109-.873H9.082v-5.4H7.235v-.881h4.72v.881H10.109Zm6.606-1.705a1.58,1.58,0,0,1-.606,1.314,2.636,2.636,0,0,1-1.671.477,3.987,3.987,0,0,1-1.744-.331v-.971a4.74,4.74,0,0,0,.913.318,3.87,3.87,0,0,0,.9.116,1.431,1.431,0,0,0,.9-.232.756.756,0,0,0,.29-.623.781.781,0,0,0-.266-.6,4.009,4.009,0,0,0-1.1-.58,2.909,2.909,0,0,1-1.211-.795,1.681,1.681,0,0,1-.352-1.074,1.5,1.5,0,0,1,.558-1.237,2.316,2.316,0,0,1,1.5-.451,4.4,4.4,0,0,1,1.8.4l-.326.838A3.923,3.923,0,0,0,14.8-6.362a1.147,1.147,0,0,0-.756.217.712.712,0,0,0-.258.573.807.807,0,0,0,.1.419,1.053,1.053,0,0,0,.339.329,5.74,5.74,0,0,0,.85.408,4.653,4.653,0,0,1,1.014.537,1.579,1.579,0,0,1,.472.563A1.693,1.693,0,0,1,16.715-2.578Z" transform="translate(300.634 100.274)" fill="#fff"/><path d="M16.318-14.377V-15.82H1.68v1.443h6.6V-3.966L4.222-8.02,3.192-6.989,9-1.182l5.807-5.807L13.775-8.02,9.72-3.966V-14.377Z" transform="translate(167.188 38.6)" fill="#231f20"/><path d="M3.123-15.82H1.68V-1.182H3.123v-6.6H13.535L9.48-3.725l1.031,1.031L16.318-8.5l-5.807-5.807L9.48-13.278l4.055,4.055H3.123Z" transform="translate(245.258 103.253)" fill="#231f20"/><path d="M3.123-15.82H1.68V-1.182H3.123v-6.6H13.535L9.48-3.725l1.031,1.031L16.318-8.5l-5.807-5.807L9.48-13.278l4.055,4.055H3.123Z" transform="translate(89.119 80.385)" fill="#231f20"/><path d="M3.123-15.82H1.68V-1.182H3.123v-6.6H13.535L9.48-3.725l1.031,1.031L16.318-8.5l-5.807-5.807L9.48-13.278l4.055,4.055H3.123Z" transform="translate(89.119 122.968)" fill="#231f20"/><path d="M-14.647-7.294a2.259,2.259,0,0,0-1.8.758A3.059,3.059,0,0,0-17.1-4.46a3.12,3.12,0,0,0,.635,2.1,2.259,2.259,0,0,0,1.812.739,6.187,6.187,0,0,0,1.649-.26v.7a5.078,5.078,0,0,1-1.772.269,3,3,0,0,1-2.355-.926,3.814,3.814,0,0,1-.829-2.632,4.154,4.154,0,0,1,.4-1.871,2.866,2.866,0,0,1,1.153-1.238,3.489,3.489,0,0,1,1.774-.435,4.281,4.281,0,0,1,1.9.4l-.34.69A3.661,3.661,0,0,0-14.647-7.294Zm3.813,6.289h-.784V-8.357h.784Zm2.447,0h-.784V-6.184h.784Zm-.85-6.582a.521.521,0,0,1,.132-.395.462.462,0,0,1,.331-.125.462.462,0,0,1,.326.128.511.511,0,0,1,.137.392.52.52,0,0,1-.137.395.458.458,0,0,1-.326.13.453.453,0,0,1-.331-.13A.531.531,0,0,1-9.237-7.587Zm4.7,6.676a2.379,2.379,0,0,1-1.812-.7,2.707,2.707,0,0,1-.664-1.942A3,3,0,0,1-6.4-5.541,2.048,2.048,0,0,1-4.74-6.279a1.953,1.953,0,0,1,1.54.64,2.454,2.454,0,0,1,.567,1.689v.5H-6.2a2.053,2.053,0,0,0,.461,1.384A1.593,1.593,0,0,0-4.508-1.6a4.171,4.171,0,0,0,1.654-.35v.7a4.151,4.151,0,0,1-.787.257A4.421,4.421,0,0,1-4.536-.911Zm-.213-4.711a1.281,1.281,0,0,0-.995.406,1.873,1.873,0,0,0-.437,1.124h2.707A1.724,1.724,0,0,0-3.8-5.227,1.164,1.164,0,0,0-4.749-5.622Zm7,4.616v-3.35A1.352,1.352,0,0,0,1.96-5.3a1.174,1.174,0,0,0-.9-.312,1.488,1.488,0,0,0-1.191.439,2.218,2.218,0,0,0-.378,1.45v2.717H-1.3V-6.184h.638l.128.709h.038a1.6,1.6,0,0,1,.676-.593,2.2,2.2,0,0,1,.969-.21,1.967,1.967,0,0,1,1.408.451,1.92,1.92,0,0,1,.472,1.443v3.378Zm4.068-.553a2.562,2.562,0,0,0,.4-.031,2.6,2.6,0,0,0,.307-.064v.6a1.434,1.434,0,0,1-.376.1,2.821,2.821,0,0,1-.446.04q-1.5,0-1.5-1.583V-5.575H3.959v-.378L4.7-6.279l.331-1.106h.454v1.2h1.5v.609h-1.5v3.047a1.048,1.048,0,0,0,.222.718A.773.773,0,0,0,6.316-1.559Zm5.084-.86A1.3,1.3,0,0,1,10.862-1.3,2.532,2.532,0,0,1,9.35-.911a3.288,3.288,0,0,1-1.606-.326v-.728a3.885,3.885,0,0,0,.8.3,3.344,3.344,0,0,0,.824.109,1.87,1.87,0,0,0,.945-.2.648.648,0,0,0,.331-.6.649.649,0,0,0-.262-.517,4.125,4.125,0,0,0-1.023-.508,5.547,5.547,0,0,1-1.028-.47A1.4,1.4,0,0,1,7.878-4.3a1.189,1.189,0,0,1-.149-.609,1.162,1.162,0,0,1,.515-1,2.4,2.4,0,0,1,1.413-.366,4.133,4.133,0,0,1,1.635.34l-.279.638A3.752,3.752,0,0,0,9.6-5.622a1.625,1.625,0,0,0-.841.175.541.541,0,0,0-.283.482.587.587,0,0,0,.106.354,1.049,1.049,0,0,0,.343.279,7.655,7.655,0,0,0,.907.383,3.389,3.389,0,0,1,1.245.676A1.191,1.191,0,0,1,11.4-2.418ZM-21.716,16.588l-2.343-6.123H-24.1q.066.728.066,1.729v4.394h-.742V9.68h1.21l2.188,5.7h.038l2.206-5.7h1.2v6.908h-.8V12.137q0-.765.066-1.663h-.038l-2.362,6.114Zm8.746,0-.156-.737h-.038a2.179,2.179,0,0,1-.772.659,2.355,2.355,0,0,1-.961.172,1.73,1.73,0,0,1-1.207-.4,1.448,1.448,0,0,1-.437-1.129q0-1.569,2.509-1.644l.879-.028v-.321a1.313,1.313,0,0,0-.262-.9,1.078,1.078,0,0,0-.839-.291,3.417,3.417,0,0,0-1.465.4l-.241-.6a3.686,3.686,0,0,1,.839-.326,3.632,3.632,0,0,1,.914-.118,1.973,1.973,0,0,1,1.373.411,1.716,1.716,0,0,1,.446,1.318v3.534Zm-1.772-.553a1.592,1.592,0,0,0,1.15-.4,1.486,1.486,0,0,0,.418-1.124v-.468l-.784.033a2.853,2.853,0,0,0-1.349.291.876.876,0,0,0-.413.8.808.808,0,0,0,.257.647A1.069,1.069,0,0,0-14.742,16.035Zm7.512.553v-3.35a1.352,1.352,0,0,0-.288-.945,1.174,1.174,0,0,0-.9-.312,1.488,1.488,0,0,0-1.191.439,2.218,2.218,0,0,0-.378,1.45v2.717h-.784V11.409h.638l.128.709h.038a1.6,1.6,0,0,1,.676-.593,2.2,2.2,0,0,1,.969-.21,1.967,1.967,0,0,1,1.408.451,1.92,1.92,0,0,1,.472,1.443v3.378Zm5.58,0-.156-.737h-.038a2.179,2.179,0,0,1-.772.659,2.355,2.355,0,0,1-.961.172,1.73,1.73,0,0,1-1.207-.4,1.448,1.448,0,0,1-.437-1.129q0-1.569,2.509-1.644l.879-.028v-.321a1.313,1.313,0,0,0-.262-.9,1.078,1.078,0,0,0-.839-.291,3.417,3.417,0,0,0-1.465.4l-.241-.6a3.686,3.686,0,0,1,.839-.326,3.632,3.632,0,0,1,.914-.118,1.973,1.973,0,0,1,1.373.411,1.716,1.716,0,0,1,.446,1.318v3.534Zm-1.772-.553a1.592,1.592,0,0,0,1.15-.4,1.486,1.486,0,0,0,.418-1.124v-.468l-.784.033a2.853,2.853,0,0,0-1.349.291.876.876,0,0,0-.413.8.808.808,0,0,0,.257.647A1.069,1.069,0,0,0-3.421,16.035Zm8.207-4.626v.5l-.959.113a1.684,1.684,0,0,1,.34,1.035,1.531,1.531,0,0,1-.52,1.214,2.1,2.1,0,0,1-1.427.454,2.376,2.376,0,0,1-.435-.038.772.772,0,0,0-.5.666.338.338,0,0,0,.175.314,1.277,1.277,0,0,0,.6.1h.917a2.053,2.053,0,0,1,1.292.354,1.231,1.231,0,0,1,.451,1.03,1.47,1.47,0,0,1-.69,1.311,3.692,3.692,0,0,1-2.013.451,2.75,2.75,0,0,1-1.566-.378A1.22,1.22,0,0,1-.1,17.466a1.2,1.2,0,0,1,.3-.817,1.54,1.54,0,0,1,.85-.468A.82.82,0,0,1,.72,15.9a.738.738,0,0,1-.135-.439.834.834,0,0,1,.151-.5,1.59,1.59,0,0,1,.477-.411,1.4,1.4,0,0,1-.654-.562,1.652,1.652,0,0,1-.253-.907,1.676,1.676,0,0,1,.51-1.311,2.083,2.083,0,0,1,1.446-.461,2.629,2.629,0,0,1,.732.094ZM.656,17.457a.7.7,0,0,0,.354.638,1.956,1.956,0,0,0,1.016.217,2.835,2.835,0,0,0,1.462-.3.9.9,0,0,0,.475-.8.634.634,0,0,0-.26-.584,2.018,2.018,0,0,0-.978-.163h-.94a1.238,1.238,0,0,0-.832.255A.912.912,0,0,0,.656,17.457Zm.425-4.389a1.054,1.054,0,0,0,.307.822,1.226,1.226,0,0,0,.855.279,1,1,0,0,0,1.148-1.115,1.029,1.029,0,0,0-1.162-1.167,1.151,1.151,0,0,0-.85.3A1.2,1.2,0,0,0,1.081,13.068Zm6.955,3.614a2.379,2.379,0,0,1-1.812-.7,2.707,2.707,0,0,1-.664-1.942,3,3,0,0,1,.617-1.989,2.048,2.048,0,0,1,1.656-.737,1.953,1.953,0,0,1,1.54.64,2.454,2.454,0,0,1,.567,1.689v.5H6.373a2.053,2.053,0,0,0,.461,1.384A1.593,1.593,0,0,0,8.065,16a4.171,4.171,0,0,0,1.654-.35v.7a4.151,4.151,0,0,1-.787.257A4.421,4.421,0,0,1,8.036,16.682Zm-.213-4.711a1.281,1.281,0,0,0-.995.406A1.873,1.873,0,0,0,6.392,13.5H9.1a1.724,1.724,0,0,0-.331-1.136A1.164,1.164,0,0,0,7.824,11.971Zm5.816-.657a3.069,3.069,0,0,1,.619.057l-.109.728a2.672,2.672,0,0,0-.567-.071,1.38,1.38,0,0,0-1.075.51,1.861,1.861,0,0,0-.446,1.271v2.778h-.784V11.409h.647l.09.959h.038a2.276,2.276,0,0,1,.695-.78A1.563,1.563,0,0,1,13.64,11.315Zm4.928,3.86a1.3,1.3,0,0,1-.539,1.115,2.532,2.532,0,0,1-1.512.392,3.288,3.288,0,0,1-1.606-.326v-.728a3.885,3.885,0,0,0,.8.3,3.344,3.344,0,0,0,.824.109,1.87,1.87,0,0,0,.945-.2.675.675,0,0,0,.069-1.115,4.125,4.125,0,0,0-1.023-.508,5.547,5.547,0,0,1-1.028-.47,1.4,1.4,0,0,1-.454-.456,1.189,1.189,0,0,1-.149-.609,1.162,1.162,0,0,1,.515-1,2.4,2.4,0,0,1,1.413-.366,4.133,4.133,0,0,1,1.635.34l-.279.638a3.752,3.752,0,0,0-1.413-.321,1.625,1.625,0,0,0-.841.175.541.541,0,0,0-.283.482.587.587,0,0,0,.106.354,1.049,1.049,0,0,0,.343.279,7.655,7.655,0,0,0,.907.383,3.389,3.389,0,0,1,1.245.676A1.191,1.191,0,0,1,18.568,15.175ZM-25.755,31.308v2.873h-.8V27.273h1.895a2.981,2.981,0,0,1,1.878.487,1.764,1.764,0,0,1,.607,1.465,1.835,1.835,0,0,1-1.389,1.852l1.876,3.1h-.95l-1.673-2.873Zm0-.69h1.1a1.9,1.9,0,0,0,1.247-.338,1.257,1.257,0,0,0,.4-1.013,1.153,1.153,0,0,0-.4-.987,2.189,2.189,0,0,0-1.3-.3h-1.044Zm7.248,3.657a2.379,2.379,0,0,1-1.812-.7,2.707,2.707,0,0,1-.664-1.942,3,3,0,0,1,.617-1.989,2.048,2.048,0,0,1,1.656-.737,1.953,1.953,0,0,1,1.54.64,2.454,2.454,0,0,1,.567,1.689v.5h-3.567a2.053,2.053,0,0,0,.461,1.384,1.593,1.593,0,0,0,1.231.472,4.171,4.171,0,0,0,1.654-.35v.7a4.151,4.151,0,0,1-.787.257A4.421,4.421,0,0,1-18.507,34.275Zm-.213-4.711a1.281,1.281,0,0,0-.995.406,1.873,1.873,0,0,0-.437,1.124h2.707a1.724,1.724,0,0,0-.331-1.136A1.164,1.164,0,0,0-18.72,29.565ZM-11.028,29v.5l-.959.113a1.649,1.649,0,0,1,.236.432,1.649,1.649,0,0,1,.1.6,1.531,1.531,0,0,1-.52,1.214,2.1,2.1,0,0,1-1.427.454,2.376,2.376,0,0,1-.435-.038.772.772,0,0,0-.5.666.338.338,0,0,0,.175.314,1.277,1.277,0,0,0,.6.1h.917a2.053,2.053,0,0,1,1.292.354,1.231,1.231,0,0,1,.451,1.03,1.47,1.47,0,0,1-.69,1.311,3.692,3.692,0,0,1-2.013.451,2.75,2.75,0,0,1-1.566-.378,1.22,1.22,0,0,1-.55-1.068,1.2,1.2,0,0,1,.3-.817,1.54,1.54,0,0,1,.85-.468.82.82,0,0,1-.333-.279.738.738,0,0,1-.135-.439.834.834,0,0,1,.151-.5,1.59,1.59,0,0,1,.477-.411,1.4,1.4,0,0,1-.654-.562,1.652,1.652,0,0,1-.253-.907A1.676,1.676,0,0,1-15,29.369a2.083,2.083,0,0,1,1.446-.461,2.629,2.629,0,0,1,.732.094Zm-4.129,6.048a.7.7,0,0,0,.354.638,1.956,1.956,0,0,0,1.016.217,2.834,2.834,0,0,0,1.462-.3.9.9,0,0,0,.475-.8.634.634,0,0,0-.26-.584,2.018,2.018,0,0,0-.978-.163h-.94a1.238,1.238,0,0,0-.832.255A.912.912,0,0,0-15.158,35.05Zm.425-4.389a1.054,1.054,0,0,0,.307.822,1.226,1.226,0,0,0,.855.279,1,1,0,0,0,1.148-1.115,1.029,1.029,0,0,0-1.162-1.167,1.151,1.151,0,0,0-.85.3A1.2,1.2,0,0,0-14.732,30.661ZM-9.228,29v3.359a1.352,1.352,0,0,0,.288.945,1.174,1.174,0,0,0,.9.312,1.472,1.472,0,0,0,1.188-.444,2.24,2.24,0,0,0,.376-1.45V29h.784v5.178h-.647l-.113-.695h-.043a1.563,1.563,0,0,1-.669.586,2.247,2.247,0,0,1-.976.2,1.979,1.979,0,0,1-1.415-.449,1.911,1.911,0,0,1-.47-1.436V29Zm5.986,5.178h-.784V26.829h.784Zm4.848,0-.156-.737H1.412A2.179,2.179,0,0,1,.64,34.1a2.355,2.355,0,0,1-.961.172,1.73,1.73,0,0,1-1.207-.4,1.448,1.448,0,0,1-.437-1.129q0-1.569,2.509-1.644l.879-.028v-.321a1.313,1.313,0,0,0-.262-.9,1.078,1.078,0,0,0-.839-.291,3.417,3.417,0,0,0-1.465.4l-.241-.6a3.686,3.686,0,0,1,.839-.326,3.632,3.632,0,0,1,.914-.118,1.973,1.973,0,0,1,1.373.411,1.716,1.716,0,0,1,.446,1.318v3.534Zm-1.772-.553a1.592,1.592,0,0,0,1.15-.4A1.486,1.486,0,0,0,1.4,32.1v-.468l-.784.033a2.853,2.853,0,0,0-1.349.291.876.876,0,0,0-.413.8.808.808,0,0,0,.257.647A1.069,1.069,0,0,0-.166,33.628Zm5.641,0a2.562,2.562,0,0,0,.4-.031,2.6,2.6,0,0,0,.307-.064v.6a1.434,1.434,0,0,1-.376.1,2.821,2.821,0,0,1-.446.04q-1.5,0-1.5-1.583V29.612H3.118v-.378l.742-.326L4.19,27.8h.454V29h1.5v.609h-1.5v3.047a1.048,1.048,0,0,0,.222.718A.773.773,0,0,0,5.475,33.628Zm6.213-2.041a2.857,2.857,0,0,1-.638,1.977,2.246,2.246,0,0,1-1.762.711,2.334,2.334,0,0,1-1.233-.326,2.152,2.152,0,0,1-.832-.935,3.26,3.26,0,0,1-.293-1.427,2.852,2.852,0,0,1,.633-1.973,2.239,2.239,0,0,1,1.758-.706,2.191,2.191,0,0,1,1.727.723A2.844,2.844,0,0,1,11.688,31.587Zm-3.945,0a2.458,2.458,0,0,0,.4,1.512,1.378,1.378,0,0,0,1.167.52,1.387,1.387,0,0,0,1.169-.517,2.445,2.445,0,0,0,.4-1.514,2.406,2.406,0,0,0-.4-1.5A1.4,1.4,0,0,0,9.3,29.574a1.38,1.38,0,0,0-1.162.506A2.433,2.433,0,0,0,7.743,31.587Zm7.682-2.679a3.069,3.069,0,0,1,.619.057l-.109.728a2.672,2.672,0,0,0-.567-.071,1.38,1.38,0,0,0-1.075.51,1.861,1.861,0,0,0-.446,1.271v2.778h-.784V29h.647l.09.959h.038a2.276,2.276,0,0,1,.695-.78A1.563,1.563,0,0,1,15.426,28.908Zm4.928,3.86a1.3,1.3,0,0,1-.539,1.115,2.532,2.532,0,0,1-1.512.392,3.288,3.288,0,0,1-1.606-.326v-.728a3.885,3.885,0,0,0,.8.3,3.344,3.344,0,0,0,.824.109,1.87,1.87,0,0,0,.945-.2.675.675,0,0,0,.069-1.115,4.125,4.125,0,0,0-1.023-.508,5.547,5.547,0,0,1-1.028-.47,1.4,1.4,0,0,1-.454-.456,1.189,1.189,0,0,1-.149-.609,1.162,1.162,0,0,1,.515-1,2.4,2.4,0,0,1,1.413-.366,4.133,4.133,0,0,1,1.635.34l-.279.638a3.753,3.753,0,0,0-1.413-.321,1.625,1.625,0,0,0-.841.175.541.541,0,0,0-.283.482.587.587,0,0,0,.106.354,1.049,1.049,0,0,0,.343.279,7.655,7.655,0,0,0,.907.383,3.389,3.389,0,0,1,1.245.676A1.191,1.191,0,0,1,20.354,32.768ZM-24.565,45.485a2.259,2.259,0,0,0-1.8.758,3.059,3.059,0,0,0-.659,2.077,3.12,3.12,0,0,0,.635,2.1,2.259,2.259,0,0,0,1.812.739,6.186,6.186,0,0,0,1.649-.26v.7a5.078,5.078,0,0,1-1.772.269,3,3,0,0,1-2.355-.926,3.814,3.814,0,0,1-.829-2.632,4.154,4.154,0,0,1,.4-1.871A2.866,2.866,0,0,1-26.329,45.2a3.489,3.489,0,0,1,1.774-.435,4.281,4.281,0,0,1,1.9.4l-.34.69A3.661,3.661,0,0,0-24.565,45.485ZM-20.8,46.6v3.359a1.352,1.352,0,0,0,.288.945,1.174,1.174,0,0,0,.9.312,1.472,1.472,0,0,0,1.188-.444,2.24,2.24,0,0,0,.376-1.45V46.6h.784v5.178h-.647l-.113-.695h-.043a1.563,1.563,0,0,1-.669.586,2.247,2.247,0,0,1-.976.2,1.98,1.98,0,0,1-1.415-.449,1.911,1.911,0,0,1-.47-1.436V46.6Zm8.542,3.766a1.3,1.3,0,0,1-.539,1.115,2.532,2.532,0,0,1-1.512.392,3.288,3.288,0,0,1-1.606-.326v-.728a3.884,3.884,0,0,0,.8.3,3.344,3.344,0,0,0,.824.109,1.87,1.87,0,0,0,.945-.2.648.648,0,0,0,.331-.6.649.649,0,0,0-.262-.517A4.125,4.125,0,0,0-14.3,49.4a5.547,5.547,0,0,1-1.028-.47,1.4,1.4,0,0,1-.454-.456,1.189,1.189,0,0,1-.149-.609,1.162,1.162,0,0,1,.515-1A2.4,2.4,0,0,1-14,46.5a4.133,4.133,0,0,1,1.635.34l-.279.638a3.753,3.753,0,0,0-1.413-.321,1.625,1.625,0,0,0-.841.175.541.541,0,0,0-.283.482.587.587,0,0,0,.106.354,1.049,1.049,0,0,0,.343.279,7.655,7.655,0,0,0,.907.383,3.389,3.389,0,0,1,1.245.676A1.191,1.191,0,0,1-12.257,50.361Zm2.948.86a2.562,2.562,0,0,0,.4-.031,2.6,2.6,0,0,0,.307-.064v.6a1.434,1.434,0,0,1-.376.1,2.821,2.821,0,0,1-.446.04q-1.5,0-1.5-1.583V47.205h-.742v-.378l.742-.326.331-1.106h.454v1.2h1.5v.609h-1.5v3.047a1.048,1.048,0,0,0,.222.718A.773.773,0,0,0-9.308,51.221ZM-3.1,49.18a2.857,2.857,0,0,1-.638,1.977,2.246,2.246,0,0,1-1.762.711,2.334,2.334,0,0,1-1.233-.326,2.152,2.152,0,0,1-.832-.935,3.26,3.26,0,0,1-.293-1.427,2.852,2.852,0,0,1,.633-1.973A2.239,2.239,0,0,1-5.462,46.5a2.191,2.191,0,0,1,1.727.723A2.844,2.844,0,0,1-3.1,49.18Zm-3.945,0a2.458,2.458,0,0,0,.4,1.512,1.378,1.378,0,0,0,1.167.52,1.387,1.387,0,0,0,1.169-.517,2.445,2.445,0,0,0,.4-1.514,2.406,2.406,0,0,0-.4-1.5,1.4,1.4,0,0,0-1.179-.513,1.38,1.38,0,0,0-1.162.506A2.433,2.433,0,0,0-7.04,49.18Zm8.845,1.9H1.762a1.843,1.843,0,0,1-1.625.789,1.923,1.923,0,0,1-1.58-.695A3.057,3.057,0,0,1-2.009,49.2a3.109,3.109,0,0,1,.567-1.989A1.908,1.908,0,0,1,.136,46.5a1.883,1.883,0,0,1,1.616.765h.061l-.033-.373-.019-.364V44.422h.784v7.352H1.908Zm-1.569.132A1.428,1.428,0,0,0,1.4,50.775a2.208,2.208,0,0,0,.361-1.41V49.2A2.6,2.6,0,0,0,1.4,47.628a1.391,1.391,0,0,0-1.169-.47,1.2,1.2,0,0,0-1.056.536A2.666,2.666,0,0,0-1.2,49.208a2.556,2.556,0,0,0,.364,1.5A1.232,1.232,0,0,0,.236,51.212Zm4.758.562H4.209V46.6h.784Zm-.85-6.582a.521.521,0,0,1,.132-.395.49.49,0,0,1,.657,0,.511.511,0,0,1,.137.392.52.52,0,0,1-.137.395.48.48,0,0,1-.657,0A.531.531,0,0,1,4.143,45.192Zm5.7,6.582-.156-.737H9.647a2.179,2.179,0,0,1-.772.659,2.355,2.355,0,0,1-.961.172,1.73,1.73,0,0,1-1.207-.4,1.448,1.448,0,0,1-.437-1.129q0-1.569,2.509-1.644l.879-.028v-.321a1.313,1.313,0,0,0-.262-.9,1.078,1.078,0,0,0-.839-.291,3.417,3.417,0,0,0-1.465.4l-.241-.6a3.686,3.686,0,0,1,.839-.326,3.632,3.632,0,0,1,.914-.118,1.973,1.973,0,0,1,1.373.411,1.716,1.716,0,0,1,.446,1.318v3.534Zm-1.772-.553a1.592,1.592,0,0,0,1.15-.4A1.486,1.486,0,0,0,9.638,49.7v-.468l-.784.033a2.853,2.853,0,0,0-1.349.291.876.876,0,0,0-.413.8A.808.808,0,0,0,7.349,51,1.069,1.069,0,0,0,8.069,51.221Zm7.512.553v-3.35a1.352,1.352,0,0,0-.288-.945,1.174,1.174,0,0,0-.9-.312,1.488,1.488,0,0,0-1.191.439,2.218,2.218,0,0,0-.378,1.45v2.717h-.784V46.6h.638l.128.709h.038a1.6,1.6,0,0,1,.676-.593,2.2,2.2,0,0,1,.969-.21,1.967,1.967,0,0,1,1.408.451,1.92,1.92,0,0,1,.472,1.443v3.378Zm5.736-1.413a1.3,1.3,0,0,1-.539,1.115,2.532,2.532,0,0,1-1.512.392,3.288,3.288,0,0,1-1.606-.326v-.728a3.884,3.884,0,0,0,.8.3,3.344,3.344,0,0,0,.824.109,1.87,1.87,0,0,0,.945-.2A.675.675,0,0,0,20.3,49.91a4.125,4.125,0,0,0-1.023-.508,5.547,5.547,0,0,1-1.028-.47,1.4,1.4,0,0,1-.454-.456,1.189,1.189,0,0,1-.149-.609,1.162,1.162,0,0,1,.515-1,2.4,2.4,0,0,1,1.413-.366,4.133,4.133,0,0,1,1.635.34l-.279.638a3.753,3.753,0,0,0-1.413-.321,1.625,1.625,0,0,0-.841.175.541.541,0,0,0-.283.482.587.587,0,0,0,.106.354,1.049,1.049,0,0,0,.343.279,7.655,7.655,0,0,0,.907.383,3.389,3.389,0,0,1,1.245.676A1.191,1.191,0,0,1,21.317,50.361Z" transform="translate(302.048 129.408)" fill="#4a0000"/></svg>