<svg xmlns="http://www.w3.org/2000/svg" xmlns:xlink="http://www.w3.org/1999/xlink" width="66.358" height="87.095" viewBox="0 0 66.358 87.095"><defs><clipPath id="a"><rect width="66.359" height="87.095" fill="none"/></clipPath></defs><g clip-path="url(#a)"><path d="M28.473,37.7h0A17.534,17.534,0,0,0,10.94,55.235V61.9a17.98,17.98,0,0,0,.217,2.764,32.063,32.063,0,0,0,34.632,0,17.98,17.98,0,0,0,.217-2.764V55.235A17.534,17.534,0,0,0,28.473,37.7" transform="translate(4.704 16.213)" fill="#e9b47a"/><path d="M64.878,47.337A32.041,32.041,0,1,1,32.836,15.3,32.043,32.043,0,0,1,64.878,47.337Z" transform="translate(0.342 6.578)" fill="none" stroke="#e3a058" stroke-miterlimit="10" stroke-width="1.592"/><path d="M35.711,43.624A9.618,9.618,0,1,1,26.091,34a9.62,9.62,0,0,1,9.62,9.62" transform="translate(7.085 14.623)" fill="#e3a058"/><path d="M32.728,42.934A7.324,7.324,0,1,1,25.4,35.609a7.323,7.323,0,0,1,7.325,7.325" transform="translate(7.775 15.313)" fill="#d0d0d0"/><path d="M19.77,14.563c0,3.524-3.2,6.382-7.142,6.382s-7.14-2.859-7.14-6.382,3.2-6.384,7.14-6.384,7.142,2.859,7.142,6.384" transform="translate(2.36 3.518)" fill="#e40521"/><path d="M44.314,13.533c0,3.524-3.2,6.382-7.143,6.382s-7.14-2.859-7.14-6.382,3.2-6.384,7.14-6.384,7.143,2.859,7.143,6.384" transform="translate(12.914 3.075)" fill="#e40521"/><path d="M56.146,27.562C56.146,40.505,44.807,51,30.818,51S5.489,40.505,5.489,27.562,16.829,4.127,30.818,4.127,56.146,14.619,56.146,27.562" transform="translate(2.36 1.775)" fill="#e40521"/><path d="M46.633,26.725a4.841,4.841,0,1,1-4.841-4.841,4.842,4.842,0,0,1,4.841,4.841" transform="translate(15.889 9.411)" fill="#ededed"/><path d="M12.363,26.725a4.841,4.841,0,1,1-4.841-4.841,4.842,4.842,0,0,1,4.841,4.841" transform="translate(1.153 9.411)" fill="#ededed"/><path d="M53.683,31.766A23.435,23.435,0,1,1,30.248,8.331,23.435,23.435,0,0,1,53.683,31.766" transform="translate(2.93 3.583)" fill="#ededed"/><path d="M46.636,31.766A23.435,23.435,0,0,1,23.2,55.2V8.331A23.435,23.435,0,0,1,46.636,31.766" transform="translate(9.977 3.583)" fill="#e3e3e3"/><path d="M20.215,23.614a2.245,2.245,0,1,1-2.245-2.245,2.246,2.246,0,0,1,2.245,2.245" transform="translate(6.762 9.19)"/><path d="M32.029,23.614a2.246,2.246,0,1,1-2.245-2.245,2.246,2.246,0,0,1,2.245,2.245" transform="translate(11.841 9.19)"/><path d="M21.606,8.305s7.152,11.59,23.8,13.335c0,0-5.556-14.623-23.8-13.335" transform="translate(9.291 3.537)" fill="#e40521"/><path d="M32.728,30.543A8.9,8.9,0,0,1,25.4,33.95a8.894,8.894,0,0,1-7.323-3.408" transform="translate(7.775 13.134)" fill="none" stroke="#e40521" stroke-linecap="round" stroke-miterlimit="10" stroke-width="1.195"/><path d="M29.63,11.218a8.4,8.4,0,1,1-8.4-8.4,8.4,8.4,0,0,1,8.4,8.4" transform="translate(5.519 1.214)" fill="#e40521"/><path d="M23.607,9.068c0,3.525-3.2,6.384-7.142,6.384s-7.14-2.859-7.14-6.384,3.2-6.382,7.14-6.382,7.142,2.857,7.142,6.382" transform="translate(4.01 1.155)" fill="#e40521"/><path d="M39.443,8.2c0,3.524-3.2,6.382-7.143,6.382S25.161,11.725,25.161,8.2s3.2-6.384,7.139-6.384S39.443,4.677,39.443,8.2" transform="translate(10.82 0.782)" fill="#e40521"/><path d="M31.066,6.382c0,3.525-3.2,6.384-7.142,6.384s-7.14-2.859-7.14-6.384S19.98,0,23.924,0s7.142,2.859,7.142,6.382" transform="translate(7.217 0)" fill="#e40521"/><ellipse cx="5.897" cy="5.897" rx="5.897" ry="5.897" transform="translate(18.835 26.8)" fill="none" stroke="#e40521" stroke-linecap="round" stroke-miterlimit="10" stroke-width="1.195"/><path d="M36.779,24.712a5.9,5.9,0,1,1-5.9-5.9A5.9,5.9,0,0,1,36.779,24.712Z" transform="translate(10.743 8.091)" fill="none" stroke="#e40521" stroke-linecap="round" stroke-miterlimit="10" stroke-width="1.195"/><line x1="9.322" transform="translate(9.956 30.452)" fill="none" stroke="#e40521" stroke-linecap="round" stroke-miterlimit="10" stroke-width="1.195"/><line x1="10.395" transform="translate(46.985 30.452)" fill="none" stroke="#e40521" stroke-linecap="round" stroke-miterlimit="10" stroke-width="1.195"/></g></svg>