<svg xmlns="http://www.w3.org/2000/svg" width="120" height="120" viewBox="0 0 120 120"><rect width="120" height="120" rx="8" fill="none"/><path d="M241.945,29.66a2.008,2.008,0,0,0-.825-1.525,2.069,2.069,0,0,0-2.375-.075L220.07,39.285a1.249,1.249,0,0,1-.9.15L207.1,34.485l3.775,1.55A3.285,3.285,0,0,0,215,32.385a3.592,3.592,0,0,0-2.45-2.65L200.62,25.76l-8.7,2.175v17l3.2-1.6a1.2,1.2,0,0,1,.975-.05l20.95,7.275a3.713,3.713,0,0,0,3.675-.875l20.6-18.475a1.935,1.935,0,0,0,.6-1.575Z" transform="translate(-154.444 36.765)" fill="none" stroke="#231f20" stroke-linecap="round" stroke-linejoin="round" stroke-width="2.3"/><path d="M189.88,25.75H195v25H189.88" transform="translate(-157.504 36.75)" fill="none" stroke="#231f20" stroke-linecap="round" stroke-linejoin="round" stroke-width="2.3"/><circle cx="6.675" cy="6.675" r="6.675" transform="translate(59.525 49.15)" fill="none" stroke="#231f20" stroke-linecap="round" stroke-linejoin="round" stroke-width="2.3"/><circle cx="3.9" cy="3.9" r="3.9" transform="translate(74.501 38.3)" fill="none" stroke="#231f20" stroke-linecap="round" stroke-linejoin="round" stroke-width="2.3"/></svg>