<svg xmlns="http://www.w3.org/2000/svg" width="120" height="120" viewBox="0 0 120 120"><rect width="120" height="120" rx="8" transform="translate(120 120) rotate(180)" fill="none"/><path d="M291.42,13.52a34.987,34.987,0,1,1-37.1,18.1" transform="translate(-225.27 12.029)" fill="none" stroke="#231f20" stroke-linecap="round" stroke-linejoin="round" stroke-width="2.3"/><line x1="22.5" transform="translate(46.25 70)" fill="none" stroke="#231f20" stroke-linecap="round" stroke-linejoin="round" stroke-width="2.3"/><path d="M266.27,28.3l-7.5,7.5,7.5,7.5" transform="translate(-212.521 34.2)" fill="none" stroke="#231f20" stroke-linecap="round" stroke-linejoin="round" stroke-width="2.3"/><line x2="22.5" transform="translate(51.25 55)" fill="none" stroke="#231f20" stroke-linecap="round" stroke-linejoin="round" stroke-width="2.3"/><path d="M266.77,37.3l7.5-7.5-7.5-7.5" transform="translate(-200.52 25.2)" fill="none" stroke="#231f20" stroke-linecap="round" stroke-linejoin="round" stroke-width="2.3"/><path d="M277.755,30.11l1.775-4.2-1.575-.675a2.509,2.509,0,0,1-1.525-2.3v-.1a2.466,2.466,0,0,1,1.575-2.3l1.575-.65-1.7-4.225-1.575.625a2.51,2.51,0,0,1-2.7-.55l-.075-.075a2.492,2.492,0,0,1-.525-2.75l.675-1.575-4.2-1.775-.675,1.575a2.509,2.509,0,0,1-2.3,1.525h-.1a2.466,2.466,0,0,1-2.3-1.575l-.65-1.575-4.225,1.7.625,1.575a2.51,2.51,0,0,1-.55,2.7l-.075.075a2.492,2.492,0,0,1-2.75.525l-1.575-.675-1.775,4.2,1.575.675a2.509,2.509,0,0,1,1.525,2.3v.1a2.466,2.466,0,0,1-1.575,2.3l-1.575.65,1.7,4.225,1.575-.625a2.51,2.51,0,0,1,2.7.55l.075.075a2.493,2.493,0,0,1,.525,2.75l-.675,1.575,4.2,1.775.675-1.575a2.509,2.509,0,0,1,2.3-1.525h.1a2.466,2.466,0,0,1,2.3,1.575l.65,1.575,4.225-1.7-.625-1.575a2.51,2.51,0,0,1,.55-2.7l.075-.075a2.493,2.493,0,0,1,2.75-.525l1.575.675Z" transform="translate(-221.055 6.015)" fill="none" stroke="#231f20" stroke-linecap="round" stroke-linejoin="round" stroke-width="2.3"/><circle cx="1.675" cy="1.675" r="1.675" transform="translate(43.6 27.125)" fill="none" stroke="#231f20" stroke-linecap="round" stroke-linejoin="round" stroke-width="2.3"/></svg>