<svg xmlns="http://www.w3.org/2000/svg" xmlns:xlink="http://www.w3.org/1999/xlink" width="120" height="120" viewBox="0 0 120 120"><defs><clipPath id="a"><rect width="120" height="120" fill="none"/></clipPath></defs><g transform="translate(0 0)"><g transform="translate(0 0)" clip-path="url(#a)"><path d="M24.674,31.621H9.47a1.15,1.15,0,0,1-1.147-1.238A31.707,31.707,0,0,1,15.871,12.15a1.15,1.15,0,0,1,1.687-.065L28.3,22.83a1.15,1.15,0,0,1,.114,1.493,14.272,14.272,0,0,0-2.607,6.323A1.15,1.15,0,0,1,24.674,31.621Zm-13.936-2.3H23.717A16.479,16.479,0,0,1,26,23.78l-9.172-9.172a29.389,29.389,0,0,0-6.09,14.713Z" transform="translate(19.932 27.146)" fill="#231f20"/><path d="M23.644,28.64a1.148,1.148,0,0,1-.814-.337L12.085,17.558a1.15,1.15,0,0,1,.065-1.687A31.707,31.707,0,0,1,30.383,8.323,1.15,1.15,0,0,1,31.621,9.47v15.2a1.15,1.15,0,0,1-.974,1.136,14.272,14.272,0,0,0-6.323,2.607A1.147,1.147,0,0,1,23.644,28.64ZM14.608,16.828,23.78,26a16.479,16.479,0,0,1,5.541-2.284V10.738a29.389,29.389,0,0,0-14.713,6.09Z" transform="translate(27.148 19.931)" fill="#231f20"/><path d="M9.47,18.943h15.2a1.15,1.15,0,0,1,1.137.974,14.272,14.272,0,0,0,2.607,6.323,1.15,1.15,0,0,1-.114,1.493L17.558,38.479a1.15,1.15,0,0,1-1.687-.065A31.707,31.707,0,0,1,8.323,20.181,1.15,1.15,0,0,1,9.47,18.943Zm14.247,2.3H10.738a29.389,29.389,0,0,0,6.09,14.713L26,26.784A16.479,16.479,0,0,1,23.717,21.243Z" transform="translate(19.932 42.29)" fill="#231f20"/><path d="M20.093,8.32q.044,0,.088,0a31.7,31.7,0,0,1,18.233,7.545,1.15,1.15,0,0,1,.065,1.686L27.734,28.3a1.15,1.15,0,0,1-1.494.114,14.2,14.2,0,0,0-6.321-2.606,1.15,1.15,0,0,1-.976-1.137V9.47a1.15,1.15,0,0,1,1.15-1.15Zm15.863,8.505a29.386,29.386,0,0,0-14.713-6.087V23.716A16.408,16.408,0,0,1,26.784,26Z" transform="translate(42.291 19.931)" fill="#231f20"/><path d="M41.4,31.621h-15.2a1.15,1.15,0,0,1-1.136-.974,14.272,14.272,0,0,0-2.607-6.323,1.15,1.15,0,0,1,.114-1.493L33.309,12.085A1.15,1.15,0,0,1,35,12.15a31.707,31.707,0,0,1,7.548,18.233A1.15,1.15,0,0,1,41.4,31.621Zm-14.247-2.3H40.129a29.389,29.389,0,0,0-6.09-14.713L24.867,23.78A16.479,16.479,0,0,1,27.151,29.321Z" transform="translate(49.204 27.146)" fill="#231f20"/><path d="M23.644,22.227a1.147,1.147,0,0,1,.68.223,14.272,14.272,0,0,0,6.323,2.607,1.15,1.15,0,0,1,.974,1.137V41.4a1.15,1.15,0,0,1-1.238,1.147A31.707,31.707,0,0,1,12.15,35a1.15,1.15,0,0,1-.065-1.687L22.83,22.564A1.148,1.148,0,0,1,23.644,22.227Zm5.677,4.924a16.479,16.479,0,0,1-5.541-2.284l-9.172,9.172a29.39,29.39,0,0,0,14.713,6.09Z" transform="translate(27.148 49.202)" fill="#231f20"/><path d="M26.922,22.227a1.148,1.148,0,0,1,.814.337L38.478,33.31A1.15,1.15,0,0,1,38.413,35,31.7,31.7,0,0,1,20.18,42.544,1.15,1.15,0,0,1,18.942,41.4v-15.2a1.15,1.15,0,0,1,.974-1.137,14.3,14.3,0,0,0,6.327-2.608A1.147,1.147,0,0,1,26.922,22.227Zm9.033,11.812-9.17-9.172a16.51,16.51,0,0,1-5.544,2.284V40.129a29.379,29.379,0,0,0,14.713-6.09Z" transform="translate(42.289 49.202)" fill="#231f20"/><path d="M58.665,19.581H23.656A1.62,1.62,0,0,0,22.032,21.2V38.706A1.618,1.618,0,0,0,23.65,40.33H53.657A6.634,6.634,0,0,0,60.283,33.7V21.2a1.62,1.62,0,0,0-1.618-1.624M34.318,26.39h-3.98v2.4h3.7v1.9h-3.7v2.819h3.98v1.916h-6.3V24.49h6.3Zm8.057,8.336a4.63,4.63,0,0,1-2.965.851,6.943,6.943,0,0,1-3.1-.658V32.767a12.857,12.857,0,0,0,1.875.7,5.6,5.6,0,0,0,1.4.2,1.964,1.964,0,0,0,1.171-.295.988.988,0,0,0,.407-.866.964.964,0,0,0-.18-.574,2.02,2.02,0,0,0-.528-.481,13.3,13.3,0,0,0-1.416-.739,6.6,6.6,0,0,1-1.5-.907,3.254,3.254,0,0,1-.8-1.009,3.152,3.152,0,0,1,.68-3.629,4.1,4.1,0,0,1,2.72-.829,6.477,6.477,0,0,1,1.63.2,11.253,11.253,0,0,1,1.618.568l-.745,1.8a10.729,10.729,0,0,0-1.45-.5,4.746,4.746,0,0,0-1.124-.143,1.48,1.48,0,0,0-1.009.307,1.1,1.1,0,0,0-.214,1.338,1.631,1.631,0,0,0,.456.438,13.21,13.21,0,0,0,1.472.767,5.868,5.868,0,0,1,2.1,1.472,2.87,2.87,0,0,1,.571,1.807,2.829,2.829,0,0,1-1.068,2.335m11.922.233a12.662,12.662,0,0,1-1.987.481,12.835,12.835,0,0,1-1.9.137,4.821,4.821,0,0,1-3.785-1.456,6.048,6.048,0,0,1-1.3-4.176,5.512,5.512,0,0,1,1.515-4.129,5.737,5.737,0,0,1,4.2-1.481,8.106,8.106,0,0,1,3.248.674l-.77,1.857a5.5,5.5,0,0,0-2.493-.6,3.083,3.083,0,0,0-2.409,1.009,3.927,3.927,0,0,0-.9,2.717,4.368,4.368,0,0,0,.727,2.72,2.531,2.531,0,0,0,2.124.941A7.321,7.321,0,0,0,52.03,33.5V31.218H49.96V29.287H54.3Z" transform="translate(46.373 41.213)" fill="#231f20"/></g></g></svg>