<svg xmlns="http://www.w3.org/2000/svg" width="120" height="120" viewBox="0 0 120 120"><rect width="120" height="120" rx="8" fill="none"/><circle cx="9.475" cy="9.475" r="9.475" transform="translate(50.524 50.525)" fill="none" stroke="#231f20" stroke-linecap="round" stroke-linejoin="round" stroke-width="2.3"/><circle cx="6.3" cy="6.3" r="6.3" transform="translate(82.399 41.2)" fill="none" stroke="#231f20" stroke-linecap="round" stroke-linejoin="round" stroke-width="2.3"/><circle cx="5.4" cy="5.4" r="5.4" transform="translate(42.1 32.5)" fill="none" stroke="#231f20" stroke-linecap="round" stroke-linejoin="round" stroke-width="2.3"/><circle cx="3.9" cy="3.9" r="3.9" transform="translate(66.1 28.75)" fill="none" stroke="#231f20" stroke-linecap="round" stroke-linejoin="round" stroke-width="2.3"/><circle cx="3.9" cy="3.9" r="3.9" transform="translate(73.6 86.101)" fill="none" stroke="#231f20" stroke-linecap="round" stroke-linejoin="round" stroke-width="2.3"/><circle cx="2.5" cy="2.5" r="2.5" transform="translate(79.899 67.524)" fill="none" stroke="#231f20" stroke-linecap="round" stroke-linejoin="round" stroke-width="2.3"/><circle cx="2.675" cy="2.675" r="2.675" transform="translate(57.325 77.5)" fill="none" stroke="#231f20" stroke-linecap="round" stroke-linejoin="round" stroke-width="2.3"/><circle cx="2.675" cy="2.675" r="2.675" transform="translate(28.325 53.325)" fill="none" stroke="#231f20" stroke-linecap="round" stroke-linejoin="round" stroke-width="2.3"/><circle cx="7.15" cy="7.15" r="7.15" transform="translate(28.75 77.95)" fill="none" stroke="#231f20" stroke-linecap="round" stroke-linejoin="round" stroke-width="2.3"/><line y1="6" x2="13.75" transform="translate(69.149 50)" fill="none" stroke="#231f20" stroke-linecap="round" stroke-linejoin="round" stroke-width="2.3"/><line x2="10.5" y2="17.95" transform="translate(64.899 68.45)" fill="none" stroke="#231f20" stroke-linecap="round" stroke-linejoin="round" stroke-width="2.3"/><line x1="11.45" y2="11.425" transform="translate(41.05 67.5)" fill="none" stroke="#231f20" stroke-linecap="round" stroke-linejoin="round" stroke-width="2.3"/><line y1="14.9" x2="5.1" transform="translate(63.649 36.351)" fill="none" stroke="#231f20" stroke-linecap="round" stroke-linejoin="round" stroke-width="2.3"/><line x2="5.15" y2="8.675" transform="translate(50 43.175)" fill="none" stroke="#231f20" stroke-linecap="round" stroke-linejoin="round" stroke-width="2.3"/><line x2="16.55" y2="2.175" transform="translate(33.675 56.35)" fill="none" stroke="#231f20" stroke-linecap="round" stroke-linejoin="round" stroke-width="2.3"/><line x2="10.725" y2="4.775" transform="translate(68.95 63.975)" fill="none" stroke="#231f20" stroke-linecap="round" stroke-linejoin="round" stroke-width="2.3"/><line x2="0.125" y2="7.475" transform="translate(59.875 70.024)" fill="none" stroke="#231f20" stroke-linecap="round" stroke-linejoin="round" stroke-width="2.3"/></svg>