<svg xmlns="http://www.w3.org/2000/svg" width="120" height="120" viewBox="0 0 120 120"><rect width="120" height="120" rx="8" fill="none"/><circle cx="10.6" cy="10.6" r="10.6" transform="translate(49.4 55.549)" fill="none" stroke="#231f20" stroke-linecap="round" stroke-linejoin="round" stroke-width="2.3"/><path d="M266.14,95.25A14.17,14.17,0,0,0,258.09,108l.05,3.7a34.568,34.568,0,0,0,28.45-.025V108a14.259,14.259,0,0,0-8.1-12.75" transform="translate(-212.315 -20.5)" fill="none" stroke="#231f20" stroke-linecap="round" stroke-linejoin="round" stroke-width="2.3"/><circle cx="7.45" cy="7.45" r="7.45" transform="translate(79.8 41.299)" fill="none" stroke="#231f20" stroke-linecap="round" stroke-linejoin="round" stroke-width="2.3"/><path d="M276.34,87.26a9.938,9.938,0,0,0-5.65,8.975v2.6a24.134,24.134,0,0,0,10.025,2.15,24.445,24.445,0,0,0,10.025-2.15V96.26a10.077,10.077,0,0,0-5.675-8.975" transform="translate(-193.415 -32.485)" fill="none" stroke="#231f20" stroke-linecap="round" stroke-linejoin="round" stroke-width="2.3"/><line x2="3.75" transform="translate(40.249 38.25)" fill="none" stroke="#231f20" stroke-linecap="round" stroke-linejoin="round" stroke-width="2.3"/><line x2="7.5" transform="translate(48.999 38.25)" fill="none" stroke="#231f20" stroke-linecap="round" stroke-linejoin="round" stroke-width="2.3"/><line x2="16.25" transform="translate(40.249 43.25)" fill="none" stroke="#231f20" stroke-linecap="round" stroke-linejoin="round" stroke-width="2.3"/><line x2="8.75" transform="translate(40.249 48.249)" fill="none" stroke="#231f20" stroke-linecap="round" stroke-linejoin="round" stroke-width="2.3"/><circle cx="3.75" cy="3.75" r="3.75" transform="translate(40.249 25.749)" fill="none" stroke="#231f20" stroke-linecap="round" stroke-linejoin="round" stroke-width="2.3"/><path d="M260.38,76.65h7.5l17.5,10" transform="translate(-208.881 -48.4)" fill="none" stroke="#231f20" stroke-linecap="round" stroke-linejoin="round" stroke-width="2.3"/></svg>