<svg xmlns="http://www.w3.org/2000/svg" width="120" height="120" viewBox="0 0 120 120"><rect width="120" height="120" rx="8" fill="none"/><rect width="55.225" height="37.225" rx="0.89" transform="translate(28.725 45.124)" fill="none" stroke="#231f20" stroke-linejoin="round" stroke-width="2.3"/><path d="M130.03,27.25h-10V33.5h10v6.25h-10" transform="translate(-68.681 31.5)" fill="none" stroke="#231f20" stroke-linecap="round" stroke-linejoin="round" stroke-width="2.3"/><line y2="2.5" transform="translate(56.35 56.25)" fill="none" stroke="#231f20" stroke-linecap="round" stroke-linejoin="round" stroke-width="2.3"/><line y2="2.5" transform="translate(56.35 71.25)" fill="none" stroke="#231f20" stroke-linecap="round" stroke-linejoin="round" stroke-width="2.3"/><path d="M113.89,21.025a2.23,2.23,0,0,1,2.225-2.225H166.89a2.23,2.23,0,0,1,2.225,2.225V53.8a2.23,2.23,0,0,1-2.225,2.225" transform="translate(-77.89 18.825)" fill="none" stroke="#231f20" stroke-linecap="round" stroke-linejoin="round" stroke-width="2.3"/><line y1="15.925" x2="15.9" transform="translate(44.025 14.825)" fill="none" stroke="#231f20" stroke-linecap="round" stroke-linejoin="round" stroke-width="2.3"/><path d="M129.82,20.305V9.68h-10.6" transform="translate(-69.895 5.146)" fill="none" stroke="#231f20" stroke-linecap="round" stroke-linejoin="round" stroke-width="2.3"/></svg>