<svg xmlns="http://www.w3.org/2000/svg" xmlns:xlink="http://www.w3.org/1999/xlink" width="66.358" height="84.014" viewBox="0 0 66.358 84.014"><defs><clipPath id="a"><rect width="66.359" height="84.014" fill="none"/></clipPath></defs><g clip-path="url(#a)"><path d="M28.474,35.547h0A17.535,17.535,0,0,0,10.941,53.082v6.665a17.966,17.966,0,0,0,.217,2.764,32.063,32.063,0,0,0,34.632,0,17.966,17.966,0,0,0,.217-2.764V53.082A17.535,17.535,0,0,0,28.474,35.547" transform="translate(4.705 15.285)" fill="#7f818e"/><path d="M64.878,45.182A32.041,32.041,0,1,1,32.837,13.141,32.042,32.042,0,0,1,64.878,45.182Z" transform="translate(0.342 5.65)" fill="none" stroke="#4f5868" stroke-miterlimit="10" stroke-width="1.592"/><path d="M32.729,40.779A7.324,7.324,0,1,1,25.4,33.454a7.325,7.325,0,0,1,7.325,7.325" transform="translate(7.775 14.385)" fill="#d0d0d0"/><path d="M18.886,37.472l-1.627,3.4a2.8,2.8,0,0,0-.129,2.055l1.757,5.483,4.985-2.194c-2.706-2.726-4.312-8.726-4.312-8.726a.373.373,0,0,0-.675-.016" transform="translate(7.308 16.024)" fill="#fff"/><path d="M29.586,37.472l1.627,3.4a2.8,2.8,0,0,1,.129,2.055l-1.757,5.483L24.6,46.214c2.706-2.726,4.312-8.726,4.312-8.726a.373.373,0,0,1,.675-.016" transform="translate(10.579 16.024)" fill="#fff"/><path d="M43.164,42.219,30.811,49.691,18.477,42.23A26.929,26.929,0,0,1,5.484,19.185V17.2A14.141,14.141,0,0,1,12.505,5.114l.2-.12a35.538,35.538,0,0,1,36.506.1,14.13,14.13,0,0,1,6.947,12.062v2.048A26.933,26.933,0,0,1,43.164,42.219" transform="translate(2.358 -0.001)" fill="#e40521"/><path d="M45.836,24.571A4.841,4.841,0,1,1,41,19.73a4.841,4.841,0,0,1,4.841,4.841" transform="translate(15.547 8.484)" fill="#ededed"/><path d="M13.161,24.571A4.841,4.841,0,1,1,8.321,19.73a4.843,4.843,0,0,1,4.841,4.841" transform="translate(1.496 8.484)" fill="#ededed"/><path d="M53.684,29.613A23.435,23.435,0,1,1,30.249,6.178,23.435,23.435,0,0,1,53.684,29.613" transform="translate(2.93 2.656)" fill="#ededed"/><path d="M46.637,29.613A23.435,23.435,0,0,1,23.2,53.048V6.178A23.435,23.435,0,0,1,46.637,29.613" transform="translate(9.977 2.656)" fill="#e3e3e3"/><path d="M18.339,5.869S28.722,19.389,49.676,19.437c0,0-8.786-17.5-31.337-13.568" transform="translate(7.886 2.276)" fill="#e40521"/><path d="M25.064,6.277s-5.649,6.012-18.04,12.149c0,0,5.175-11.516,18.04-12.149" transform="translate(3.02 2.699)" fill="#e40521"/><path d="M20.217,21.461a2.246,2.246,0,1,1-2.245-2.247,2.245,2.245,0,0,1,2.245,2.247" transform="translate(6.762 8.262)"/><path d="M32.03,21.461a2.246,2.246,0,1,1-2.247-2.247,2.246,2.246,0,0,1,2.247,2.247" transform="translate(11.842 8.262)"/><path d="M32.729,28.389A8.9,8.9,0,0,1,25.4,31.8a8.9,8.9,0,0,1-7.323-3.406" transform="translate(7.775 12.207)" fill="none" stroke="#e40521" stroke-linecap="round" stroke-miterlimit="10" stroke-width="1.195"/></g></svg>