<svg xmlns="http://www.w3.org/2000/svg" width="120" height="120" viewBox="0 0 120 120"><rect width="120" height="120" rx="8" fill="none"/><line x2="7.5" transform="translate(35 72.5)" fill="none" stroke="#231f20" stroke-linecap="round" stroke-linejoin="round" stroke-width="2.3"/><line x2="10" transform="translate(35 67.5)" fill="none" stroke="#231f20" stroke-linecap="round" stroke-linejoin="round" stroke-width="2.3"/><rect width="58.75" height="48.075" rx="0.92" transform="translate(28.75 32.5)" fill="none" stroke="#231f20" stroke-linecap="round" stroke-linejoin="round" stroke-width="2.3"/><path d="M242.255,82.75h5.2a2.294,2.294,0,0,1,2.3,2.3v42.925a2.294,2.294,0,0,1-2.3,2.3H193.28a2.294,2.294,0,0,1-2.3-2.3v-3.95" transform="translate(-154.755 -42.75)" fill="none" stroke="#231f20" stroke-linecap="round" stroke-linejoin="round" stroke-width="2.3"/><path d="M205.145,92.34a7.5,7.5,0,1,1-12.375-7.8" transform="translate(-155.37 -40.065)" fill="none" stroke="#231f20" stroke-linecap="round" stroke-linejoin="round" stroke-width="2.3"/><path d="M193.57,83.66a7.476,7.476,0,0,1,7.075,5" transform="translate(-150.87 -41.385)" fill="none" stroke="#231f20" stroke-linecap="round" stroke-linejoin="round" stroke-width="2.3"/><rect width="2.5" height="7.5" transform="translate(55 65)" fill="none" stroke="#231f20" stroke-linecap="round" stroke-linejoin="round" stroke-width="2.3"/><rect width="2.5" height="10" transform="translate(62.5 62.5)" fill="none" stroke="#231f20" stroke-linecap="round" stroke-linejoin="round" stroke-width="2.3"/><rect width="2.5" height="12.5" transform="translate(77.5 60)" fill="none" stroke="#231f20" stroke-linecap="round" stroke-linejoin="round" stroke-width="2.3"/><rect width="2.5" height="15" transform="translate(70 57.5)" fill="none" stroke="#231f20" stroke-linecap="round" stroke-linejoin="round" stroke-width="2.3"/><path d="M198.49,92.75l5-5,5,2.5,7.5-7.5,7.5,5" transform="translate(-143.49 -42.75)" fill="none" stroke="#231f20" stroke-linecap="round" stroke-linejoin="round" stroke-width="2.3"/></svg>