<svg xmlns="http://www.w3.org/2000/svg" xmlns:xlink="http://www.w3.org/1999/xlink" width="120" height="120" viewBox="0 0 120 120"><defs><clipPath id="a"><rect width="120" height="120" fill="none" stroke="#231f20" stroke-width="2.3"/></clipPath></defs><g transform="translate(0 0)"><path d="M0-1.15H25.226A1.15,1.15,0,0,1,26.376,0V17.8a1.15,1.15,0,0,1-1.15,1.15H0A1.15,1.15,0,0,1-1.15,17.8V0A1.15,1.15,0,0,1,0-1.15Zm24.076,2.3H1.15v15.5H24.076Z" transform="translate(24.773 51.099)" fill="#231f20"/><path d="M0-1.15H25.226A1.15,1.15,0,0,1,26.376,0V17.8a1.15,1.15,0,0,1-1.15,1.15H0A1.15,1.15,0,0,1-1.15,17.8V0A1.15,1.15,0,0,1,0-1.15Zm24.076,2.3H1.15v15.5H24.076Z" transform="translate(67.498 28.599)" fill="#231f20"/><path d="M0-1.15H25.226A1.15,1.15,0,0,1,26.376,0V17.8a1.15,1.15,0,0,1-1.15,1.15H0A1.15,1.15,0,0,1-1.15,17.8V0A1.15,1.15,0,0,1,0-1.15Zm24.076,2.3H1.15v15.5H24.076Z" transform="translate(67.498 73.612)" fill="#231f20"/><g transform="translate(0 0)"><g clip-path="url(#a)"><path d="M12.078,26.828a1.15,1.15,0,0,1-1.15-1.15v-8.6a6.156,6.156,0,0,1,6.149-6.149h17.5a1.15,1.15,0,1,1,0,2.3h-17.5a3.853,3.853,0,0,0-3.849,3.849v8.6A1.15,1.15,0,0,1,12.078,26.828Z" transform="translate(25.422 25.422)" fill="#231f20"/><path d="M34.578,36.941h-17.5a6.156,6.156,0,0,1-6.149-6.149v-8.6a1.15,1.15,0,0,1,2.3,0v8.6a3.853,3.853,0,0,0,3.849,3.849h17.5a1.15,1.15,0,1,1,0,2.3Z" transform="translate(25.422 46.708)" fill="#231f20"/><path d="M17.048,25.093a1.15,1.15,0,0,1-.813-1.963l6.257-6.26-6.257-6.257a1.15,1.15,0,0,1,1.626-1.626l7.07,7.07a1.15,1.15,0,0,1,0,1.626l-7.07,7.073A1.146,1.146,0,0,1,17.048,25.093Z" transform="translate(35.882 20.627)" fill="#231f20"/><path d="M17.048,39.587a1.15,1.15,0,0,1-.813-1.963l6.257-6.26-6.257-6.257a1.15,1.15,0,1,1,1.626-1.626l7.07,7.07a1.15,1.15,0,0,1,0,1.626l-7.07,7.073A1.146,1.146,0,0,1,17.048,39.587Z" transform="translate(35.882 51.134)" fill="#231f20"/><path d="M30.6,27.947a1.146,1.146,0,0,1-.813-.337l-7.073-7.07a1.15,1.15,0,0,1,1.626-1.627l6.26,6.257,6.257-6.257a1.15,1.15,0,0,1,1.626,1.626l-7.07,7.07A1.146,1.146,0,0,1,30.6,27.947Z" transform="translate(49.516 41.522)" fill="#231f20"/><path d="M0,16.972a1.15,1.15,0,0,1-1.15-1.15V0A1.15,1.15,0,0,1,0-1.15,1.15,1.15,0,0,1,1.15,0V15.822A1.15,1.15,0,0,1,0,16.972Z" transform="translate(80.113 52.499)" fill="#231f20"/><path d="M15,1.15H0A1.15,1.15,0,0,1-1.15,0,1.15,1.15,0,0,1,0-1.15H15A1.15,1.15,0,0,1,16.149,0,1.15,1.15,0,0,1,15,1.15Z" transform="translate(72.501 34.999)" fill="#231f20"/><path d="M15,1.15H0A1.15,1.15,0,0,1-1.15,0,1.15,1.15,0,0,1,0-1.15H15A1.15,1.15,0,0,1,16.149,0,1.15,1.15,0,0,1,15,1.15Z" transform="translate(72.501 39.999)" fill="#231f20"/><path d="M15,1.15H0A1.15,1.15,0,0,1-1.15,0,1.15,1.15,0,0,1,0-1.15H15A1.15,1.15,0,0,1,16.149,0,1.15,1.15,0,0,1,15,1.15Z" transform="translate(72.501 80.009)" fill="#231f20"/><path d="M15,1.15H0A1.15,1.15,0,0,1-1.15,0,1.15,1.15,0,0,1,0-1.15H15A1.15,1.15,0,0,1,16.149,0,1.15,1.15,0,0,1,15,1.15Z" transform="translate(72.501 85.009)" fill="#231f20"/><path d="M15,1.15H0A1.15,1.15,0,0,1-1.15,0,1.15,1.15,0,0,1,0-1.15H15A1.15,1.15,0,0,1,16.149,0,1.15,1.15,0,0,1,15,1.15Z" transform="translate(30 57.509)" fill="#231f20"/><path d="M15,1.15H0A1.15,1.15,0,0,1-1.15,0,1.15,1.15,0,0,1,0-1.15H15A1.15,1.15,0,0,1,16.149,0,1.15,1.15,0,0,1,15,1.15Z" transform="translate(30 62.509)" fill="#231f20"/></g></g></g></svg>