<svg xmlns="http://www.w3.org/2000/svg" xmlns:xlink="http://www.w3.org/1999/xlink" width="66.36" height="81.036" viewBox="0 0 66.36 81.036"><defs><clipPath id="a"><rect width="66.36" height="81.036" fill="none"/></clipPath></defs><g clip-path="url(#a)"><path d="M28.475,33.465h0A17.534,17.534,0,0,0,10.942,51v6.667a17.98,17.98,0,0,0,.217,2.764,32.063,32.063,0,0,0,34.632,0,17.98,17.98,0,0,0,.217-2.764V51A17.534,17.534,0,0,0,28.475,33.465" transform="translate(4.705 14.391)" fill="#d4b3b8"/><path d="M64.88,43.1A32.042,32.042,0,1,1,32.838,11.059,32.042,32.042,0,0,1,64.88,43.1Z" transform="translate(0.342 4.756)" fill="none" stroke="#caa1a6" stroke-miterlimit="10" stroke-width="1.592"/><path d="M31.268,38.463c0,3.425-6.2,7.848-6.2,7.848s-6.2-4.423-6.2-7.848a6.2,6.2,0,1,1,12.4,0" transform="translate(8.113 13.873)" fill="#d0d0d0"/><path d="M57.991,27.082v9.581A12.184,12.184,0,0,1,45.807,48.846H16.685A12.183,12.183,0,0,1,4.5,36.663V26.745a26.746,26.746,0,1,1,53.49.336" transform="translate(1.936 0)" fill="#e40521"/><path d="M45.837,22.488A4.841,4.841,0,1,1,41,17.647a4.841,4.841,0,0,1,4.841,4.841" transform="translate(15.548 7.589)" fill="#ededed"/><path d="M13.162,22.488a4.841,4.841,0,1,1-4.841-4.841,4.842,4.842,0,0,1,4.841,4.841" transform="translate(1.496 7.589)" fill="#ededed"/><path d="M53.685,27.529A23.435,23.435,0,1,1,30.25,4.094,23.435,23.435,0,0,1,53.685,27.529" transform="translate(2.931 1.761)" fill="#ededed"/><path d="M46.638,27.529A23.435,23.435,0,0,1,23.2,50.964V4.094A23.435,23.435,0,0,1,46.638,27.529" transform="translate(9.978 1.761)" fill="#e3e3e3"/><path d="M20.218,19.377a2.246,2.246,0,1,1-2.247-2.245,2.247,2.247,0,0,1,2.247,2.245" transform="translate(6.763 7.367)"/><path d="M32.029,19.377a2.245,2.245,0,1,1-2.245-2.245,2.246,2.246,0,0,1,2.245,2.245" transform="translate(11.842 7.367)"/><path d="M32.73,26.306a8.9,8.9,0,0,1-7.325,3.406,8.9,8.9,0,0,1-7.323-3.406" transform="translate(7.776 11.312)" fill="none" stroke="#e40521" stroke-linecap="round" stroke-miterlimit="10" stroke-width="1.195"/><path d="M18.21,3.977S27.76,24,48.714,24.045c0,0,.6-27.26-30.5-20.067" transform="translate(7.831 1.191)" fill="#e40521"/><path d="M24.949,4.194s-5.691,13.1-18.083,19.238c0,0,.439-18.862,18.083-19.238" transform="translate(2.953 1.804)" fill="#e40521"/></g></svg>