<svg xmlns="http://www.w3.org/2000/svg" width="24" height="24" viewBox="0 0 24 24"><g transform="translate(-1646 -3067)"><path d="M7.781-18.984h8.438a5.657,5.657,0,0,1,2.883.773A5.693,5.693,0,0,1,21.211-16.1a5.657,5.657,0,0,1,.773,2.883v8.438A5.657,5.657,0,0,1,21.211-1.9,5.693,5.693,0,0,1,19.1.211a5.657,5.657,0,0,1-2.883.773H7.781A5.657,5.657,0,0,1,4.9.211,5.693,5.693,0,0,1,2.789-1.9a5.657,5.657,0,0,1-.773-2.883v-8.437A5.657,5.657,0,0,1,2.789-16.1,5.693,5.693,0,0,1,4.9-18.211,5.657,5.657,0,0,1,7.781-18.984Zm-.187,1.969a3.479,3.479,0,0,0-2.555,1.055,3.479,3.479,0,0,0-1.055,2.555v8.813A3.479,3.479,0,0,0,5.039-2.039,3.479,3.479,0,0,0,7.594-.984h8.813a3.479,3.479,0,0,0,2.555-1.055,3.479,3.479,0,0,0,1.055-2.555v-8.812a3.479,3.479,0,0,0-1.055-2.555,3.479,3.479,0,0,0-2.555-1.055Zm9.656,1.5a1.217,1.217,0,0,1,.891.375,1.217,1.217,0,0,1,.375.891,1.217,1.217,0,0,1-.375.891,1.217,1.217,0,0,1-.891.375,1.217,1.217,0,0,1-.891-.375,1.217,1.217,0,0,1-.375-.891,1.217,1.217,0,0,1,.375-.891A1.217,1.217,0,0,1,17.25-15.516ZM12-14.016a4.835,4.835,0,0,1,2.508.68,5.124,5.124,0,0,1,1.828,1.828A4.835,4.835,0,0,1,17.016-9a4.835,4.835,0,0,1-.68,2.508,5.124,5.124,0,0,1-1.828,1.828A4.835,4.835,0,0,1,12-3.984a4.835,4.835,0,0,1-2.508-.68A5.124,5.124,0,0,1,7.664-6.492,4.835,4.835,0,0,1,6.984-9a4.835,4.835,0,0,1,.68-2.508,5.124,5.124,0,0,1,1.828-1.828A4.835,4.835,0,0,1,12-14.016ZM12-12a2.9,2.9,0,0,0-2.133.867A2.9,2.9,0,0,0,9-9a2.9,2.9,0,0,0,.867,2.133A2.9,2.9,0,0,0,12-6a2.9,2.9,0,0,0,2.133-.867A2.9,2.9,0,0,0,15-9a2.9,2.9,0,0,0-.867-2.133A2.9,2.9,0,0,0,12-12Z" transform="translate(1646 3088)" fill="#ffffff"/><path d="M1,1V23H23V1H1M0,0H24V24H0Z" transform="translate(1646 3067)" fill="none"/></g></svg>