<svg xmlns="http://www.w3.org/2000/svg" width="24" height="24" viewBox="0 0 24 24"><g transform="translate(-1602 -3067)"><path d="M18.984-18a1.945,1.945,0,0,1,1.43.586A1.945,1.945,0,0,1,21-15.984V-2.016a1.945,1.945,0,0,1-.586,1.43A1.945,1.945,0,0,1,18.984,0H5.016a1.945,1.945,0,0,1-1.43-.586A1.945,1.945,0,0,1,3-2.016V-15.984a1.945,1.945,0,0,1,.586-1.43A1.945,1.945,0,0,1,5.016-18ZM18.516-2.484v-5.3a3.162,3.162,0,0,0-.961-2.32,3.162,3.162,0,0,0-2.32-.961,2.625,2.625,0,0,0-1.312.375,2.593,2.593,0,0,0-.984.938v-1.125H10.125v8.391h2.813V-7.453a1.31,1.31,0,0,1,.4-.961,1.337,1.337,0,0,1,.984-.4,1.337,1.337,0,0,1,.984.4,1.31,1.31,0,0,1,.4.961v4.969ZM6.891-12.422a1.627,1.627,0,0,0,1.2-.492,1.627,1.627,0,0,0,.492-1.2,1.627,1.627,0,0,0-.492-1.2,1.627,1.627,0,0,0-1.2-.492,1.627,1.627,0,0,0-1.2.492,1.627,1.627,0,0,0-.492,1.2,1.627,1.627,0,0,0,.492,1.2A1.627,1.627,0,0,0,6.891-12.422ZM8.25-2.484v-8.391H5.484v8.391Z" transform="translate(1602 3088)" fill="#ffffff"/><path d="M1,1V23H23V1H1M0,0H24V24H0Z" transform="translate(1602 3067)" fill="none"/></g></svg>