<svg xmlns="http://www.w3.org/2000/svg" width="20" height="20" viewBox="0 0 20 20"><g transform="translate(-6922 150)"><rect width="20" height="20" transform="translate(6922 -150)" fill="none"/><path d="M10.742-4.961,8.594-7.031l.039-.039a14.3,14.3,0,0,0,3.086-5.43H14.18v-1.68H8.32V-15.82H6.68v1.641H.82v1.68h9.336A13.33,13.33,0,0,1,7.5-8.047,12.824,12.824,0,0,1,5.586-10.82H3.906a14.494,14.494,0,0,0,2.5,3.789L2.148-2.852,3.32-1.68,7.5-5.82l2.578,2.578ZM15.43-9.18H13.75L10,.82h1.68l.938-2.5h3.945L17.5.82h1.68ZM13.242-3.32,14.57-6.953,15.938-3.32Z" transform="translate(6922 -132)" fill="#231f20"/></g></svg>