<svg xmlns="http://www.w3.org/2000/svg" width="120" height="120" viewBox="0 0 120 120"><rect width="120" height="120" rx="8" fill="none"/><circle cx="5.575" cy="5.575" r="5.575" transform="translate(35.675 44.625)" fill="none" stroke="#231f20" stroke-linecap="round" stroke-linejoin="round" stroke-width="2.3"/><path d="M118.63,89.41a7.5,7.5,0,0,0-4.05,5.075" transform="translate(-80.63 -34.685)" fill="none" stroke="#231f20" stroke-linecap="round" stroke-linejoin="round" stroke-width="2.3"/><path d="M122.85,94.485a7.444,7.444,0,0,0-4.05-5.075" transform="translate(-74.299 -34.685)" fill="none" stroke="#231f20" stroke-linecap="round" stroke-linejoin="round" stroke-width="2.3"/><circle cx="12.5" cy="12.5" r="12.5" transform="translate(28.75 37.5)" fill="none" stroke="#231f20" stroke-linecap="round" stroke-linejoin="round" stroke-width="2.3"/><circle cx="5.575" cy="5.575" r="5.575" transform="translate(69.425 69.625)" fill="none" stroke="#231f20" stroke-linecap="round" stroke-linejoin="round" stroke-width="2.3"/><path d="M132.13,99.41a7.444,7.444,0,0,0-4.05,5.075" transform="translate(-60.38 -19.685)" fill="none" stroke="#231f20" stroke-linecap="round" stroke-linejoin="round" stroke-width="2.3"/><path d="M136.365,104.51a7.455,7.455,0,0,0-4.075-5.1" transform="translate(-54.065 -19.685)" fill="none" stroke="#231f20" stroke-linecap="round" stroke-linejoin="round" stroke-width="2.3"/><circle cx="12.5" cy="12.5" r="12.5" transform="translate(62.5 62.5)" fill="none" stroke="#231f20" stroke-linecap="round" stroke-linejoin="round" stroke-width="2.3"/><circle cx="3.35" cy="3.35" r="3.35" transform="translate(32.9 76.775)" fill="none" stroke="#231f20" stroke-linecap="round" stroke-linejoin="round" stroke-width="2.3"/><path d="M116.175,100.65a4.473,4.473,0,0,0-2.425,3.05" transform="translate(-81.875 -17.824)" fill="none" stroke="#231f20" stroke-linecap="round" stroke-linejoin="round" stroke-width="2.3"/><path d="M118.705,103.7a4.541,4.541,0,0,0-2.425-3.05" transform="translate(-78.08 -17.824)" fill="none" stroke="#231f20" stroke-linecap="round" stroke-linejoin="round" stroke-width="2.3"/><circle cx="7.5" cy="7.5" r="7.5" transform="translate(28.75 72.5)" fill="none" stroke="#231f20" stroke-linecap="round" stroke-linejoin="round" stroke-width="2.3"/><circle cx="3.35" cy="3.35" r="3.35" transform="translate(80.399 41.775)" fill="none" stroke="#231f20" stroke-linecap="round" stroke-linejoin="round" stroke-width="2.3"/><path d="M135.175,86.65a4.473,4.473,0,0,0-2.425,3.05" transform="translate(-53.375 -38.825)" fill="none" stroke="#231f20" stroke-linecap="round" stroke-linejoin="round" stroke-width="2.3"/><path d="M137.705,89.7a4.541,4.541,0,0,0-2.425-3.05" transform="translate(-49.58 -38.825)" fill="none" stroke="#231f20" stroke-linecap="round" stroke-linejoin="round" stroke-width="2.3"/><circle cx="7.5" cy="7.5" r="7.5" transform="translate(76.25 37.5)" fill="none" stroke="#231f20" stroke-linecap="round" stroke-linejoin="round" stroke-width="2.3"/><circle cx="3.35" cy="3.35" r="3.35" transform="translate(59.15 29.275)" fill="none" stroke="#231f20" stroke-linecap="round" stroke-linejoin="round" stroke-width="2.3"/><path d="M126.675,81.65a4.473,4.473,0,0,0-2.425,3.05" transform="translate(-66.125 -46.325)" fill="none" stroke="#231f20" stroke-linecap="round" stroke-linejoin="round" stroke-width="2.3"/><path d="M129.2,84.7a4.541,4.541,0,0,0-2.425-3.05" transform="translate(-62.33 -46.325)" fill="none" stroke="#231f20" stroke-linecap="round" stroke-linejoin="round" stroke-width="2.3"/><circle cx="7.5" cy="7.5" r="7.5" transform="translate(55 25)" fill="none" stroke="#231f20" stroke-linecap="round" stroke-linejoin="round" stroke-width="2.3"/><line y1="2.5" x2="19" transform="translate(43.75 77.5)" fill="none" stroke="#231f20" stroke-linecap="round" stroke-linejoin="round" stroke-width="2.3"/><line y1="10" x2="1.25" transform="translate(36.25 62.5)" fill="none" stroke="#231f20" stroke-linecap="round" stroke-linejoin="round" stroke-width="2.3"/><line x1="13.775" y1="10.25" transform="translate(52.075 56.25)" fill="none" stroke="#231f20" stroke-linecap="round" stroke-linejoin="round" stroke-width="2.3"/><line y1="4.225" x2="6.4" transform="translate(50 36.85)" fill="none" stroke="#231f20" stroke-linecap="round" stroke-linejoin="round" stroke-width="2.3"/><line x2="7.875" y2="5" transform="translate(69.4 36.25)" fill="none" stroke="#231f20" stroke-linecap="round" stroke-linejoin="round" stroke-width="2.3"/><line x2="7.3" y2="22.925" transform="translate(64.45 40)" fill="none" stroke="#231f20" stroke-linecap="round" stroke-linejoin="round" stroke-width="2.3"/><line y1="11.25" x2="1.875" transform="translate(80.425 52.5)" fill="none" stroke="#231f20" stroke-linecap="round" stroke-linejoin="round" stroke-width="2.3"/></svg>