<svg xmlns="http://www.w3.org/2000/svg" xmlns:xlink="http://www.w3.org/1999/xlink" width="120" height="120" viewBox="0 0 120 120"><defs><clipPath id="a"><rect width="120" height="120" fill="none" stroke="#231f20" stroke-width="2.3"/></clipPath></defs><g clip-path="url(#a)"><path d="M13,17.5V15a5,5,0,0,1,5-5H53L68,25V38.778" transform="translate(19.5 15)" fill="none" stroke="#231f20" stroke-linecap="square" stroke-linejoin="round" stroke-width="2.3"/><path d="M13,24.1V53.85a5,5,0,0,0,5,5H63a5,5,0,0,0,5-5V35.07" transform="translate(19.5 36.15)" fill="none" stroke="#231f20" stroke-linecap="square" stroke-linejoin="round" stroke-width="2.3"/><path d="M29,10V25H43.618" transform="translate(43.5 15)" fill="none" stroke="#231f20" stroke-linecap="round" stroke-linejoin="round" stroke-width="2.3"/><path d="M34.543,29H24.61L22,30.277" transform="translate(33 43.5)" fill="#231f20" stroke="#231f20" stroke-linecap="round" stroke-linejoin="round" stroke-width="2.3"/><line x1="7.543" transform="translate(60 82.5)" fill="none" stroke="#231f20" stroke-linecap="round" stroke-linejoin="round" stroke-width="2.3"/><line x2="28.775" transform="translate(48.726 62.5)" fill="none" stroke="#231f20" stroke-linecap="round" stroke-linejoin="round" stroke-width="2.3"/><line x2="27.282" transform="translate(50.218 52.5)" fill="none" stroke="#231f20" stroke-linecap="round" stroke-linejoin="round" stroke-width="2.3"/><path d="M37.382,48.108,51.133,24l-6.438-3.68-13.75,24.11-.82,7.708Z" transform="translate(45.187 30.481)" fill="none" stroke="#231f20" stroke-linecap="square" stroke-linejoin="round" stroke-width="2.3"/><path d="M34.153,34.084l1.785-4.2-1.568-.665a2.5,2.5,0,0,1-1.52-2.313v-.095A2.5,2.5,0,0,1,34.413,24.5L36,23.866l-1.71-4.235-1.58.638a2.5,2.5,0,0,1-2.71-.56l-.065-.065a2.5,2.5,0,0,1-.525-2.738l.665-1.568-4.2-1.788L25.2,15.119a2.5,2.5,0,0,1-2.312,1.522H22.8a2.5,2.5,0,0,1-2.308-1.565l-.637-1.58-4.235,1.71.637,1.578A2.5,2.5,0,0,1,15.7,19.5l-.065.065a2.5,2.5,0,0,1-2.737.525l-1.568-.665-1.788,4.2,1.567.668A2.5,2.5,0,0,1,12.628,26.6v.093A2.5,2.5,0,0,1,11.063,29l-1.58.638,1.71,4.235,1.58-.637a2.5,2.5,0,0,1,2.71.558l.065.067a2.5,2.5,0,0,1,.525,2.738l-.665,1.567,4.2,1.785.665-1.567a2.507,2.507,0,0,1,2.312-1.523l.093,0a2.5,2.5,0,0,1,2.307,1.562l.638,1.58L29.861,38.3l-.638-1.58a2.5,2.5,0,0,1,.558-2.71l.068-.068a2.507,2.507,0,0,1,2.738-.525Z" transform="translate(14.224 20.244)" fill="none" stroke="#231f20" stroke-linecap="round" stroke-linejoin="round" stroke-width="2.3"/><circle cx="1.67" cy="1.67" r="1.67" transform="translate(35.293 45.325)" fill="none" stroke="#231f20" stroke-linecap="round" stroke-linejoin="round" stroke-width="2.3"/><path d="M23.255,35.2V29.056a6.275,6.275,0,1,0,6.275,6.275c0-.045-.012-.088-.012-.132Z" transform="translate(25.47 43.584)" fill="none" stroke="#231f20" stroke-linecap="round" stroke-linejoin="round" stroke-width="2.3"/></g></svg>