<svg xmlns="http://www.w3.org/2000/svg" width="120" height="120" viewBox="0 0 120 120"><rect width="120" height="120" rx="8" fill="none"/><path d="M23.44,134.645a15.217,15.217,0,0,1-.575-30.15l2.225-.35.325-2.225c1.275-9.05,9.7-15.9,19.6-15.9s18.325,6.825,19.6,15.9l.325,2.225,2.225.35a15.216,15.216,0,0,1-2.35,30.25" transform="translate(14.985 -57.27)" fill="none" stroke="#231f20" stroke-linecap="round" stroke-linejoin="round" stroke-width="2.3"/><line x1="7.3" y1="0.025" transform="translate(57.75 77.524)" fill="none" stroke="#231f20" stroke-linecap="round" stroke-linejoin="round" stroke-width="2.3"/><circle cx="5.975" cy="5.975" r="5.975" transform="translate(66.525 62.5)" fill="none" stroke="#231f20" stroke-linecap="round" stroke-linejoin="round" stroke-width="2.3"/><path d="M30.325,103.84a7.962,7.962,0,0,0-4.525,7.175v2" transform="translate(38.7 -30.541)" fill="none" stroke="#231f20" stroke-linecap="round" stroke-linejoin="round" stroke-width="2.3"/><path d="M34.94,113.025v-2a7.984,7.984,0,0,0-4.55-7.175" transform="translate(45.585 -30.525)" fill="none" stroke="#231f20" stroke-linecap="round" stroke-linejoin="round" stroke-width="2.3"/><line transform="translate(51.675 67.5)" fill="none" stroke="#231f20" stroke-linecap="round" stroke-linejoin="round" stroke-width="2.3"/><line x2="18.325" transform="translate(38.875 72.525)" fill="none" stroke="#231f20" stroke-linecap="round" stroke-linejoin="round" stroke-width="2.3"/><line transform="translate(51.675 77.5)" fill="none" stroke="#231f20" stroke-linecap="round" stroke-linejoin="round" stroke-width="2.3"/><rect width="18.35" height="19.975" rx="0.5" transform="translate(38.875 62.524)" fill="none" stroke="#231f20" stroke-linecap="round" stroke-linejoin="round" stroke-width="2.3"/><path d="M21.485,94.69,20.11,98.665l3.975,1.375" transform="translate(30.165 -44.265)" fill="none" stroke="#231f20" stroke-linecap="round" stroke-linejoin="round" stroke-width="2.3"/><path d="M28.9,94.69l1.375,3.975L26.3,100.04" transform="translate(39.45 -44.265)" fill="none" stroke="#231f20" stroke-linecap="round" stroke-linejoin="round" stroke-width="2.3"/><path d="M20.6,98.012a13.911,13.911,0,0,1,16.55-.775" transform="translate(30.9 -43.987)" fill="none" stroke="#231f20" stroke-linecap="round" stroke-linejoin="round" stroke-width="2.3"/></svg>