<svg xmlns="http://www.w3.org/2000/svg" width="120" height="120" viewBox="0 0 120 120"><rect width="120" height="120" rx="8" fill="none"/><path d="M247.49,161.5l-28.75-16.25L189.99,161.5v30.05a1.234,1.234,0,0,0,.15.575h0a1.508,1.508,0,0,0,.2.2.794.794,0,0,0,.25.25h0l27.5,15a1.275,1.275,0,0,0,1.2,0l27.5-15h0a.794.794,0,0,0,.25-.25c.075-.075.175-.125.225-.225h0a1.162,1.162,0,0,0,.15-.575v-30.05Z" transform="translate(-158.74 -116.5)" fill="none" stroke="#231f20" stroke-linecap="round" stroke-linejoin="round" stroke-width="2.3"/><path d="M247.49,151.75l-28.75,15-28.75-15" transform="translate(-158.74 -106.75)" fill="none" stroke="#231f20" stroke-linecap="round" stroke-linejoin="round" stroke-width="2.3"/><line y1="31.25" transform="translate(60 60)" fill="none" stroke="#231f20" stroke-linecap="round" stroke-linejoin="round" stroke-width="2.3"/><line x1="18.35" y1="10.85" transform="translate(70 65)" fill="none" stroke="#231f20" stroke-linecap="round" stroke-linejoin="round" stroke-width="2.3" stroke-dasharray="3"/><line y1="10.85" x2="18.35" transform="translate(32.5 65)" fill="none" stroke="#231f20" stroke-linecap="round" stroke-linejoin="round" stroke-width="2.3" stroke-dasharray="3"/><line y2="21.25" transform="translate(60 28.75)" fill="none" stroke="#231f20" stroke-linecap="round" stroke-linejoin="round" stroke-width="2.3" stroke-dasharray="3"/></svg>