<svg xmlns="http://www.w3.org/2000/svg" width="120" height="120" viewBox="0 0 120 120"><rect width="120" height="120" rx="8" fill="none"/><line y1="65" transform="translate(60 27.5)" fill="none" stroke="#231f20" stroke-linecap="round" stroke-linejoin="round" stroke-width="2.3"/><path d="M320.24,106.05a8.757,8.757,0,0,1-.1-16.75" transform="translate(-285.24 -37.675)" fill="none" stroke="#231f20" stroke-linecap="round" stroke-linejoin="round" stroke-width="2.3"/><path d="M320.5,97.6a4.945,4.945,0,0,1,4.95-4.95" transform="translate(-275.476 -32.65)" fill="none" stroke="#231f20" stroke-linecap="round" stroke-linejoin="round" stroke-width="2.3"/><path d="M325.45,95.61a4.945,4.945,0,0,1-4.95-4.95" transform="translate(-275.476 -35.635)" fill="none" stroke="#231f20" stroke-linecap="round" stroke-linejoin="round" stroke-width="2.3"/><path d="M317.115,98.65a8.751,8.751,0,0,1,6.125-15,5.434,5.434,0,0,1,.9.05" transform="translate(-284.49 -46.15)" fill="none" stroke="#231f20" stroke-linecap="round" stroke-linejoin="round" stroke-width="2.3"/><path d="M338.49,90.65a10,10,0,1,0-10,10h22.5l7.5-5" transform="translate(-278.49 -50.65)" fill="none" stroke="#231f20" stroke-linecap="round" stroke-linejoin="round" stroke-width="2.3"/><path d="M338.49,106.65a10,10,0,1,1-10-10h22.5l8.175,6.25" transform="translate(-278.49 -26.65)" fill="none" stroke="#231f20" stroke-linecap="round" stroke-linejoin="round" stroke-width="2.3"/><path d="M324.49,110.505a10.124,10.124,0,0,1-1.25.1,8.76,8.76,0,0,1-8.75-8.75,8.607,8.607,0,0,1,2.575-6.175" transform="translate(-284.49 -28.104)" fill="none" stroke="#231f20" stroke-linecap="round" stroke-linejoin="round" stroke-width="2.3"/><line x1="17.5" transform="translate(50 60)" fill="none" stroke="#231f20" stroke-linecap="round" stroke-linejoin="round" stroke-width="2.3"/><path d="M322.5,104.61a4.945,4.945,0,0,1,4.95-4.95" transform="translate(-272.476 -22.135)" fill="none" stroke="#231f20" stroke-linecap="round" stroke-linejoin="round" stroke-width="2.3"/><path d="M324.49,99.65h15v4.975" transform="translate(-269.49 -22.15)" fill="none" stroke="#231f20" stroke-linecap="round" stroke-linejoin="round" stroke-width="2.3"/><path d="M327.45,88.6a4.945,4.945,0,0,1-4.95-4.95" transform="translate(-272.476 -46.15)" fill="none" stroke="#231f20" stroke-linecap="round" stroke-linejoin="round" stroke-width="2.3"/><path d="M324.48,88.625H339.5V83.65" transform="translate(-269.505 -46.15)" fill="none" stroke="#231f20" stroke-linecap="round" stroke-linejoin="round" stroke-width="2.3"/><circle cx="4.375" cy="4.375" r="4.375" transform="translate(65.625 28.75)" fill="none" stroke="#231f20" stroke-linecap="round" stroke-linejoin="round" stroke-width="2.3"/><circle cx="4.375" cy="4.375" r="4.375" transform="translate(86.25 55.625)" fill="none" stroke="#231f20" stroke-linecap="round" stroke-linejoin="round" stroke-width="2.3"/><circle cx="4.375" cy="4.375" r="4.375" transform="translate(79.75 38.075)" fill="none" stroke="#231f20" stroke-linecap="round" stroke-linejoin="round" stroke-width="2.3"/><circle cx="4.375" cy="4.375" r="4.375" transform="translate(79.75 74.551)" fill="none" stroke="#231f20" stroke-linecap="round" stroke-linejoin="round" stroke-width="2.3"/><circle cx="4.375" cy="4.375" r="4.375" transform="translate(67.5 55.625)" fill="none" stroke="#231f20" stroke-linecap="round" stroke-linejoin="round" stroke-width="2.3"/><circle cx="4.375" cy="4.375" r="4.375" transform="translate(65.625 82.476)" fill="none" stroke="#231f20" stroke-linecap="round" stroke-linejoin="round" stroke-width="2.3"/><line x2="10" transform="translate(76.25 60)" fill="none" stroke="#231f20" stroke-linecap="round" stroke-linejoin="round" stroke-width="2.3"/></svg>