<svg xmlns="http://www.w3.org/2000/svg" width="120" height="120" viewBox="0 0 120 120"><rect width="120" height="120" rx="8" fill="none"/><path d="M316.7,210.52a35,35,0,1,0-57.4,0Z" transform="translate(-228 -120.52)" fill="none" stroke="#231f20" stroke-linecap="round" stroke-linejoin="round" stroke-width="2.3"/><path d="M313.8,187.07a29.25,29.25,0,0,0-58.5,0" transform="translate(-224.55 -117.07)" fill="none" stroke="#231f20" stroke-linecap="round" stroke-linejoin="round" stroke-width="2.3"/><g transform="translate(-209.348 -95.868)" fill="none" stroke-linecap="square" stroke-linejoin="round"><path d="M269.348,171.52a4.348,4.348,0,1,0,4.348,4.348,4.361,4.361,0,0,0-4.348-4.348Z" stroke="none"/><path d="M 269.3478393554688 173.8200225830078 C 268.2186279296875 173.8200225830078 267.2999572753906 174.7386474609375 267.2999572753906 175.8678131103516 C 267.2999572753906 176.9969940185547 268.2186279296875 177.9156494140625 269.3478393554688 177.9156494140625 C 270.4769592285156 177.9156494140625 271.3955993652344 176.9969940185547 271.3955993652344 175.8678131103516 C 271.3955993652344 174.7386474609375 270.4769592285156 173.8200225830078 269.3478393554688 173.8200225830078 M 269.3478393554688 171.52001953125 C 271.7391967773438 171.52001953125 273.6955871582031 173.4765014648438 273.6955871582031 175.8678131103516 C 273.6955871582031 178.2591705322266 271.7391967773438 180.2156524658203 269.3478393554688 180.2156524658203 C 266.95654296875 180.2156524658203 264.9999694824219 178.2591705322266 264.9999694824219 175.8678131103516 C 264.9999694824219 173.4765014648438 266.95654296875 171.52001953125 269.3478393554688 171.52001953125 Z" stroke="none" fill="#231f20"/></g><line y1="12.775" x2="14.3" transform="translate(63.2 65)" fill="none" stroke="#231f20" stroke-linecap="round" stroke-linejoin="round" stroke-width="2.3"/></svg>